STARTFONT 2.1
COMMENT
COMMENT Converted from OpenType font "novamono.ttf" by "otf2bdf 3.0".
COMMENT
FONT -FreeType-NovaMono-Medium-R-Normal--72-720-72-72-P-178-ISO10646-1
SIZE 72 72 72
FONTBOUNDINGBOX 230 58 0 -11
STARTPROPERTIES 19
FOUNDRY "FreeType"
FAMILY_NAME "NovaMono"
WEIGHT_NAME "Medium"
SLANT "R"
SETWIDTH_NAME "Normal"
ADD_STYLE_NAME ""
PIXEL_SIZE 72
POINT_SIZE 720
RESOLUTION_X 72
RESOLUTION_Y 72
SPACING "P"
AVERAGE_WIDTH 178
CHARSET_REGISTRY "ISO10646"
CHARSET_ENCODING "1"
FONT_ASCENT 47
FONT_DESCENT 11
COPYRIGHT "Copyright fontcollector 2009  NovaMono is based on PortraitTextMono by fontcollector (http://fontstruct.com/fontstructors/fontcollector), which is based on PortraitMono by fontcollector (http://fontstruct.com/fontstructors/fontcollector)"
_OTF_FONTFILE "novamono.ttf"
_OTF_PSNAME "NovaMono"
ENDPROPERTIES
CHARS 195
STARTCHAR 0000
ENCODING 0
SWIDTH 277 0
DWIDTH 20 0
BBX 0 0 0 0
BITMAP
ENDCHAR
STARTCHAR 000D
ENCODING 13
SWIDTH 0 0
DWIDTH 0 0
BBX 0 0 0 0
BITMAP
ENDCHAR
STARTCHAR 0020
ENCODING 32
SWIDTH 277 0
DWIDTH 20 0
BBX 0 0 0 0
BITMAP
ENDCHAR
STARTCHAR 0021
ENCODING 33
SWIDTH 277 0
DWIDTH 20 0
BBX 4 32 7 0
BITMAP
F0
F0
F0
F0
F0
F0
F0
F0
F0
F0
F0
F0
F0
F0
F0
F0
F0
F0
F0
F0
F0
F0
F0
00
00
00
00
F0
F0
F0
F0
F0
ENDCHAR
STARTCHAR 0022
ENCODING 34
SWIDTH 277 0
DWIDTH 20 0
BBX 12 12 2 20
BITMAP
F9F0
F9F0
F9F0
F9F0
F9F0
3060
3060
70C0
60C0
E180
C180
C100
ENDCHAR
STARTCHAR 0023
ENCODING 35
SWIDTH 277 0
DWIDTH 20 0
BBX 18 18 0 14
BITMAP
3E1F00
3E1F00
FFFFC0
FFFFC0
FFFFC0
FFFFC0
FFFFC0
3E1F00
3E1F00
3E1F00
3E1F00
FFFFC0
FFFFC0
FFFFC0
FFFFC0
FFFFC0
3E1F00
3E1F00
ENDCHAR
STARTCHAR 0024
ENCODING 36
SWIDTH 277 0
DWIDTH 20 0
BBX 18 41 0 -5
BITMAP
01E000
01E000
01E000
01E000
01E000
0FFC00
1FFE00
3FFF00
7FFF80
FDEFC0
F9E7C0
F9E7C0
F9E7C0
F9E7C0
F9E000
F9E000
F9E000
FDE000
FFFC00
7FFE00
3FFF00
1FFF80
0FFFC0
01EFC0
01E7C0
01E7C0
01E7C0
F9E7C0
F9E7C0
F9E7C0
F9E7C0
FDEFC0
7FFF80
3FFF00
1FFE00
0FFC00
01E000
01E000
01E000
01E000
01E000
ENDCHAR
STARTCHAR 0025
ENCODING 37
SWIDTH 277 0
DWIDTH 20 0
BBX 18 32 0 0
BITMAP
3E07C0
7F07C0
FF87C0
F78780
E38F80
E38F00
F79F00
7F1E00
3E3E00
003C00
007C00
007800
00F800
00F000
01F000
01F000
03E000
03E000
03C000
07C000
078000
0F8000
0F0000
1F1F00
1E3F80
3E7BC0
3C71C0
7C60C0
7871C0
F87BC0
F83F80
F81F00
ENDCHAR
STARTCHAR 0026
ENCODING 38
SWIDTH 277 0
DWIDTH 20 0
BBX 18 32 0 0
BITMAP
1FC000
1FE000
3FE000
3FF000
7FF000
7CF000
7CF000
7CF000
3DF000
3FE000
1FE000
1FC000
0FC000
0F8000
0F87C0
0FC780
1FCF80
1FEF00
3FFF00
3DFE00
7CFE00
78FC00
F87C00
F87C00
F8FC00
F8FE00
79FE00
7FFF00
3FEF00
3FCF80
1FC780
1F87C0
ENDCHAR
STARTCHAR 0027
ENCODING 39
SWIDTH 277 0
DWIDTH 20 0
BBX 4 12 7 20
BITMAP
F0
F0
F0
F0
F0
30
60
60
E0
C0
C0
80
ENDCHAR
STARTCHAR 0028
ENCODING 40
SWIDTH 277 0
DWIDTH 20 0
BBX 10 41 4 -5
BITMAP
0FC0
0FC0
1FC0
3FC0
7FC0
FC00
F800
F800
F800
F800
F800
F800
F800
F800
F800
F800
F800
F800
F800
F800
F800
F800
F800
F800
F800
F800
F800
F800
F800
F800
F800
F800
F800
F800
F800
FC00
7FC0
3FC0
1FC0
1FC0
0FC0
ENDCHAR
STARTCHAR 0029
ENCODING 41
SWIDTH 277 0
DWIDTH 20 0
BBX 10 41 4 -5
BITMAP
FC00
FE00
FE00
FF00
FF80
0FC0
07C0
07C0
07C0
07C0
07C0
07C0
07C0
07C0
07C0
07C0
07C0
07C0
07C0
07C0
07C0
07C0
07C0
07C0
07C0
07C0
07C0
07C0
07C0
07C0
07C0
07C0
07C0
07C0
07C0
0FC0
FF80
FF00
FE00
FC00
FC00
ENDCHAR
STARTCHAR 002A
ENCODING 42
SWIDTH 277 0
DWIDTH 20 0
BBX 18 18 0 14
BITMAP
008000
00C000
00C000
19E600
1FFE00
0FFC00
0FFC00
1FFE00
7FFF80
FFFFC0
1FFE00
0FFC00
0FFC00
1FFE00
19E600
00C000
00C000
008000
ENDCHAR
STARTCHAR 002B
ENCODING 43
SWIDTH 277 0
DWIDTH 20 0
BBX 18 18 0 7
BITMAP
01E000
01E000
01E000
01E000
01E000
01E000
01E000
FFFFC0
FFFFC0
FFFFC0
FFFFC0
FFFFC0
01E000
01E000
01E000
01E000
01E000
01E000
ENDCHAR
STARTCHAR 002C
ENCODING 44
SWIDTH 277 0
DWIDTH 20 0
BBX 4 12 7 -7
BITMAP
F0
F0
F0
F0
F0
30
60
60
E0
C0
C0
80
ENDCHAR
STARTCHAR 002D
ENCODING 45
SWIDTH 277 0
DWIDTH 20 0
BBX 18 5 0 13
BITMAP
FFFFC0
FFFFC0
FFFFC0
FFFFC0
FFFFC0
ENDCHAR
STARTCHAR 002E
ENCODING 46
SWIDTH 277 0
DWIDTH 20 0
BBX 4 5 7 0
BITMAP
F0
F0
F0
F0
F0
ENDCHAR
STARTCHAR 002F
ENCODING 47
SWIDTH 277 0
DWIDTH 20 0
BBX 18 32 0 0
BITMAP
0007C0
0007C0
0007C0
000780
000F80
000F00
001F00
001E00
003E00
003C00
007C00
007800
00F800
00F000
01F000
01F000
03E000
03E000
03C000
07C000
078000
0F8000
0F0000
1F0000
1E0000
3E0000
3C0000
7C0000
780000
F80000
F80000
F80000
ENDCHAR
STARTCHAR 0030
ENCODING 48
SWIDTH 277 0
DWIDTH 20 0
BBX 18 32 0 0
BITMAP
0FFC00
1FFE00
3FFF00
7FFF80
FFFFC0
FC0FC0
F807C0
F807C0
F807C0
F807C0
F807C0
F807C0
F807C0
F807C0
F9E7C0
F9E7C0
F9E7C0
F9E7C0
F9E7C0
F807C0
F807C0
F807C0
F807C0
F807C0
F807C0
F807C0
FC0FC0
FFFFC0
7FFF80
3FFF00
1FFE00
0FFC00
ENDCHAR
STARTCHAR 0031
ENCODING 49
SWIDTH 277 0
DWIDTH 20 0
BBX 18 32 0 0
BITMAP
03E000
07E000
0FE000
1FE000
3FE000
3FE000
3FE000
3DE000
39E000
31E000
21E000
01E000
01E000
01E000
01E000
01E000
01E000
01E000
01E000
01E000
01E000
01E000
01E000
01E000
01E000
01E000
01E000
FFFFC0
FFFFC0
FFFFC0
FFFFC0
FFFFC0
ENDCHAR
STARTCHAR 0032
ENCODING 50
SWIDTH 277 0
DWIDTH 20 0
BBX 18 32 0 0
BITMAP
0FFC00
1FFE00
3FFF00
7FFF80
FFFFC0
FC0FC0
F807C0
F807C0
F807C0
F807C0
0007C0
0007C0
0007C0
000FC0
001F80
003F00
007E00
00FC00
01F800
03F000
07E000
0FC000
1F8000
3F0000
7E0000
FC0000
F80000
FFFFC0
FFFFC0
FFFFC0
FFFFC0
FFFFC0
ENDCHAR
STARTCHAR 0033
ENCODING 51
SWIDTH 277 0
DWIDTH 20 0
BBX 18 32 0 0
BITMAP
0FFC00
1FFE00
3FFF00
7FFF80
FFFFC0
FC0FC0
F807C0
F807C0
F807C0
F807C0
0007C0
0007C0
0007C0
000FC0
01FF80
01FF00
01FF00
01FF80
01FFC0
000FC0
0007C0
0007C0
F807C0
F807C0
F807C0
F807C0
FC0FC0
FFFFC0
7FFF80
3FFF00
1FFE00
0FFC00
ENDCHAR
STARTCHAR 0034
ENCODING 52
SWIDTH 277 0
DWIDTH 20 0
BBX 18 32 0 0
BITMAP
007E00
00FE00
00FE00
01FE00
01FE00
03FE00
03FE00
07FE00
07BE00
0FBE00
0F3E00
1F3E00
1E3E00
3E3E00
3C3E00
7C3E00
783E00
F83E00
FFFFC0
FFFFC0
FFFFC0
FFFFC0
FFFFC0
003E00
003E00
003E00
003E00
003E00
003E00
003E00
003E00
003E00
ENDCHAR
STARTCHAR 0035
ENCODING 53
SWIDTH 277 0
DWIDTH 20 0
BBX 18 32 0 0
BITMAP
FFFFC0
FFFFC0
FFFFC0
FFFFC0
FFFFC0
F80000
F80000
F80000
F80000
F80000
F80000
FBFC00
FFFE00
FFFF00
FFFF80
FFFFC0
FC0FC0
F807C0
0007C0
0007C0
0007C0
0007C0
F807C0
F807C0
F807C0
F807C0
FC0FC0
FFFFC0
7FFF80
3FFF00
1FFE00
0FFC00
ENDCHAR
STARTCHAR 0036
ENCODING 54
SWIDTH 277 0
DWIDTH 20 0
BBX 18 32 0 0
BITMAP
0FFC00
1FFE00
3FFF00
7FFF80
FFFFC0
FC0FC0
F807C0
F807C0
F80000
F80000
F80000
FBFC00
FFFE00
FFFF00
FFFF80
FFFFC0
FC0FC0
F807C0
F807C0
F807C0
F807C0
F807C0
F807C0
F807C0
F807C0
F807C0
FC0FC0
FFFFC0
7FFF80
3FFF00
1FFE00
0FFC00
ENDCHAR
STARTCHAR 0037
ENCODING 55
SWIDTH 277 0
DWIDTH 20 0
BBX 18 32 0 0
BITMAP
FFFFC0
FFFFC0
FFFFC0
FFFFC0
FFFFC0
0007C0
000780
000F80
000F00
001F00
001E00
003E00
003C00
007C00
007800
00F800
00F000
01F000
01E000
01E000
01E000
01E000
01E000
01E000
01E000
01E000
01E000
01E000
01E000
01E000
01E000
01E000
ENDCHAR
STARTCHAR 0038
ENCODING 56
SWIDTH 277 0
DWIDTH 20 0
BBX 18 32 0 0
BITMAP
0FFC00
1FFE00
3FFF00
7FFF80
FFFFC0
FC0FC0
F807C0
F807C0
FC0FC0
FE1FC0
7F3F80
3FFF00
1FFE00
0FFC00
07F800
07F800
0FFC00
1FFE00
3FFF00
7F3F80
FE1FC0
FC0FC0
F807C0
F807C0
F807C0
F807C0
FC0FC0
FFFFC0
7FFF80
3FFF00
1FFE00
0FFC00
ENDCHAR
STARTCHAR 0039
ENCODING 57
SWIDTH 277 0
DWIDTH 20 0
BBX 18 32 0 0
BITMAP
0FFC00
1FFE00
3FFF00
7FFF80
FFFFC0
FC0FC0
F807C0
F807C0
F807C0
F807C0
F807C0
F807C0
F807C0
F807C0
F807C0
FC0FC0
FFFFC0
7FFFC0
3FFFC0
1FFFC0
0FF7C0
0007C0
0007C0
0007C0
F807C0
F807C0
FC0FC0
FFFFC0
7FFF80
3FFF00
1FFE00
0FFC00
ENDCHAR
STARTCHAR 003A
ENCODING 58
SWIDTH 277 0
DWIDTH 20 0
BBX 4 18 7 0
BITMAP
F0
F0
F0
F0
F0
00
00
00
00
00
00
00
00
F0
F0
F0
F0
F0
ENDCHAR
STARTCHAR 003B
ENCODING 59
SWIDTH 277 0
DWIDTH 20 0
BBX 4 25 7 -7
BITMAP
F0
F0
F0
F0
F0
00
00
00
00
00
00
00
00
00
F0
F0
F0
F0
30
70
60
E0
C0
C0
80
ENDCHAR
STARTCHAR 003C
ENCODING 60
SWIDTH 277 0
DWIDTH 20 0
BBX 18 18 0 7
BITMAP
000040
0001C0
0007C0
001FC0
007FC0
01FF00
07FC00
1FF000
7FC000
FFC000
1FF000
07FC00
01FF00
007FC0
001FC0
0007C0
0001C0
000040
ENDCHAR
STARTCHAR 003D
ENCODING 61
SWIDTH 277 0
DWIDTH 20 0
BBX 18 14 0 9
BITMAP
FFFFC0
FFFFC0
FFFFC0
FFFFC0
FFFFC0
000000
000000
000000
000000
FFFFC0
FFFFC0
FFFFC0
FFFFC0
FFFFC0
ENDCHAR
STARTCHAR 003E
ENCODING 62
SWIDTH 277 0
DWIDTH 20 0
BBX 18 18 0 7
BITMAP
800000
E00000
F80000
FE0000
FF8000
3FE000
0FF800
03FE00
00FF80
00FFC0
03FE00
0FF800
3FE000
FF8000
FE0000
F80000
E00000
800000
ENDCHAR
STARTCHAR 003F
ENCODING 63
SWIDTH 277 0
DWIDTH 20 0
BBX 18 32 0 0
BITMAP
0FFC00
1FFE00
3FFF00
7FFF80
FFFFC0
FC0FC0
F807C0
F807C0
F807C0
F807C0
000FC0
001FC0
003F80
007F00
00FE00
01FC00
01F800
01F000
01E000
01E000
01E000
01E000
01E000
000000
000000
000000
000000
01E000
01E000
01E000
01E000
01E000
ENDCHAR
STARTCHAR 0040
ENCODING 64
SWIDTH 277 0
DWIDTH 20 0
BBX 18 29 0 -2
BITMAP
3FFF00
7FFF80
600180
E001C0
C19EC0
C3DEC0
C3DEC0
C7FEC0
C7FEC0
CFFEC0
CE7EC0
DE7EC0
DE3EC0
DE3EC0
DE3EC0
DE3EC0
DE3EC0
DE7EC0
CE7FC0
CFFF80
C7FF80
C7FF00
C3DF00
C3DE00
C19E00
E00000
600000
7FFF00
3FFF00
ENDCHAR
STARTCHAR 0041
ENCODING 65
SWIDTH 277 0
DWIDTH 20 0
BBX 18 32 0 0
BITMAP
0FFC00
1FFE00
3FFF00
7FFF80
FFFFC0
FC0FC0
F807C0
F807C0
F807C0
F807C0
F807C0
F807C0
F807C0
F807C0
FFFFC0
FFFFC0
FFFFC0
FFFFC0
FFFFC0
F807C0
F807C0
F807C0
F807C0
F807C0
F807C0
F807C0
F807C0
F807C0
F807C0
F807C0
F807C0
F807C0
ENDCHAR
STARTCHAR 0042
ENCODING 66
SWIDTH 277 0
DWIDTH 20 0
BBX 18 32 0 0
BITMAP
FFFC00
FFFE00
FFFF00
FFFF80
FFFFC0
F80FC0
F807C0
F807C0
F807C0
F807C0
F807C0
F807C0
F807C0
F80FC0
FFFF80
FFFF00
FFFF00
FFFF80
FFFFC0
F80FC0
F807C0
F807C0
F807C0
F807C0
F807C0
F807C0
F80FC0
FFFFC0
FFFF80
FFFF00
FFFE00
FFFC00
ENDCHAR
STARTCHAR 0043
ENCODING 67
SWIDTH 277 0
DWIDTH 20 0
BBX 18 32 0 0
BITMAP
0FFC00
1FFE00
3FFF00
7FFF80
FFFFC0
FC0FC0
F807C0
F807C0
F807C0
F807C0
F80000
F80000
F80000
F80000
F80000
F80000
F80000
F80000
F80000
F80000
F80000
F80000
F807C0
F807C0
F807C0
F807C0
FC0FC0
FFFFC0
7FFF80
3FFF00
1FFE00
0FFC00
ENDCHAR
STARTCHAR 0044
ENCODING 68
SWIDTH 277 0
DWIDTH 20 0
BBX 18 32 0 0
BITMAP
FFF000
FFF800
FFFC00
FFFE00
FFFF00
F87F80
F81FC0
F80FC0
F807C0
F807C0
F807C0
F807C0
F807C0
F807C0
F807C0
F807C0
F807C0
F807C0
F807C0
F807C0
F807C0
F807C0
F807C0
F807C0
F80FC0
F81FC0
F83F80
FFFF00
FFFE00
FFFC00
FFF800
FFF000
ENDCHAR
STARTCHAR 0045
ENCODING 69
SWIDTH 277 0
DWIDTH 20 0
BBX 18 32 0 0
BITMAP
FFFFC0
FFFFC0
FFFFC0
FFFFC0
FFFFC0
F80000
F80000
F80000
F80000
F80000
F80000
F80000
F80000
F80000
FFFC00
FFFC00
FFFC00
FFFC00
FFFC00
F80000
F80000
F80000
F80000
F80000
F80000
F80000
F80000
FFFFC0
FFFFC0
FFFFC0
FFFFC0
FFFFC0
ENDCHAR
STARTCHAR 0046
ENCODING 70
SWIDTH 277 0
DWIDTH 20 0
BBX 18 32 0 0
BITMAP
FFFFC0
FFFFC0
FFFFC0
FFFFC0
FFFFC0
F80000
F80000
F80000
F80000
F80000
F80000
F80000
F80000
F80000
FFFC00
FFFC00
FFFC00
FFFC00
FFFC00
F80000
F80000
F80000
F80000
F80000
F80000
F80000
F80000
F80000
F80000
F80000
F80000
F80000
ENDCHAR
STARTCHAR 0047
ENCODING 71
SWIDTH 277 0
DWIDTH 20 0
BBX 18 32 0 0
BITMAP
0FFC00
1FFE00
3FFF00
7FFF80
FFFFC0
FC0FC0
F807C0
F807C0
F807C0
F807C0
F80000
F80000
F80000
F80000
F87FC0
F87FC0
F87FC0
F87FC0
F87FC0
F807C0
F807C0
F807C0
F807C0
F807C0
F807C0
F807C0
FC0FC0
FFFFC0
7FFF80
3FFF00
1FFE00
0FFC00
ENDCHAR
STARTCHAR 0048
ENCODING 72
SWIDTH 277 0
DWIDTH 20 0
BBX 18 32 0 0
BITMAP
F807C0
F807C0
F807C0
F807C0
F807C0
F807C0
F807C0
F807C0
F807C0
F807C0
F807C0
F807C0
F807C0
F807C0
FFFFC0
FFFFC0
FFFFC0
FFFFC0
FFFFC0
F807C0
F807C0
F807C0
F807C0
F807C0
F807C0
F807C0
F807C0
F807C0
F807C0
F807C0
F807C0
F807C0
ENDCHAR
STARTCHAR 0049
ENCODING 73
SWIDTH 277 0
DWIDTH 20 0
BBX 18 32 0 0
BITMAP
FFFFC0
FFFFC0
FFFFC0
FFFFC0
FFFFC0
01E000
01E000
01E000
01E000
01E000
01E000
01E000
01E000
01E000
01E000
01E000
01E000
01E000
01E000
01E000
01E000
01E000
01E000
01E000
01E000
01E000
01E000
FFFFC0
FFFFC0
FFFFC0
FFFFC0
FFFFC0
ENDCHAR
STARTCHAR 004A
ENCODING 74
SWIDTH 277 0
DWIDTH 20 0
BBX 18 32 0 0
BITMAP
007FC0
007FC0
007FC0
007FC0
007FC0
0007C0
0007C0
0007C0
0007C0
0007C0
0007C0
0007C0
0007C0
0007C0
0007C0
0007C0
0007C0
0007C0
0007C0
0007C0
0007C0
0007C0
F807C0
F807C0
F807C0
F807C0
FC0FC0
FFFFC0
7FFF80
3FFF00
1FFE00
0FFC00
ENDCHAR
STARTCHAR 004B
ENCODING 75
SWIDTH 277 0
DWIDTH 20 0
BBX 18 32 0 0
BITMAP
F807C0
F807C0
F807C0
F807C0
F807C0
F807C0
F807C0
F807C0
F807C0
F807C0
F807C0
F81FC0
F87FC0
F9FF00
FFFC00
FFF000
FFF000
FFFC00
FFFF00
F87FC0
F81FC0
F807C0
F807C0
F807C0
F807C0
F807C0
F807C0
F807C0
F807C0
F807C0
F807C0
F807C0
ENDCHAR
STARTCHAR 004C
ENCODING 76
SWIDTH 277 0
DWIDTH 20 0
BBX 18 32 0 0
BITMAP
F80000
F80000
F80000
F80000
F80000
F80000
F80000
F80000
F80000
F80000
F80000
F80000
F80000
F80000
F80000
F80000
F80000
F80000
F80000
F80000
F80000
F80000
F80000
F80000
F80000
F80000
F80000
FFFFC0
FFFFC0
FFFFC0
FFFFC0
FFFFC0
ENDCHAR
STARTCHAR 004D
ENCODING 77
SWIDTH 277 0
DWIDTH 20 0
BBX 18 32 0 0
BITMAP
F807C0
F807C0
FC0FC0
FC0FC0
FE1FC0
FE1FC0
FF3FC0
FF3FC0
FFFFC0
FFFFC0
FFFFC0
FBF7C0
FBF7C0
F9E7C0
F9E7C0
F8C7C0
F8C7C0
F887C0
F807C0
F807C0
F807C0
F807C0
F807C0
F807C0
F807C0
F807C0
F807C0
F807C0
F807C0
F807C0
F807C0
F807C0
ENDCHAR
STARTCHAR 004E
ENCODING 78
SWIDTH 277 0
DWIDTH 20 0
BBX 18 32 0 0
BITMAP
F007C0
F007C0
F807C0
F807C0
FC07C0
FC07C0
FE07C0
FE07C0
FF07C0
FF07C0
FF87C0
FF87C0
FFC7C0
FBC7C0
FBE7C0
FBE7C0
F9F7C0
F9F7C0
F8F7C0
F8FFC0
F87FC0
F87FC0
F83FC0
F83FC0
F81FC0
F81FC0
F80FC0
F80FC0
F807C0
F807C0
F803C0
F803C0
ENDCHAR
STARTCHAR 004F
ENCODING 79
SWIDTH 277 0
DWIDTH 20 0
BBX 18 32 0 0
BITMAP
0FFC00
1FFE00
3FFF00
7FFF80
FFFFC0
FC0FC0
F807C0
F807C0
F807C0
F807C0
F807C0
F807C0
F807C0
F807C0
F807C0
F807C0
F807C0
F807C0
F807C0
F807C0
F807C0
F807C0
F807C0
F807C0
F807C0
F807C0
FC0FC0
FFFFC0
7FFF80
3FFF00
1FFE00
0FFC00
ENDCHAR
STARTCHAR 0050
ENCODING 80
SWIDTH 277 0
DWIDTH 20 0
BBX 18 32 0 0
BITMAP
FFFC00
FFFE00
FFFF00
FFFF80
FFFFC0
F80FC0
F807C0
F807C0
F807C0
F807C0
F807C0
F807C0
F807C0
F80FC0
FFFFC0
FFFF80
FFFF00
FFFE00
FFFC00
F80000
F80000
F80000
F80000
F80000
F80000
F80000
F80000
F80000
F80000
F80000
F80000
F80000
ENDCHAR
STARTCHAR 0051
ENCODING 81
SWIDTH 277 0
DWIDTH 20 0
BBX 18 39 0 -7
BITMAP
0FFC00
1FFE00
3FFF00
7FFF80
FFFFC0
FC0FC0
F807C0
F807C0
F807C0
F807C0
F807C0
F807C0
F807C0
F807C0
F807C0
F807C0
F807C0
F807C0
F807C0
F807C0
F807C0
F807C0
F807C0
F807C0
F807C0
F807C0
F807C0
FC0FC0
7FFF80
3FFF00
1FFE00
0FFC00
01E000
01E000
01FF00
01FF00
01FF00
00FF00
007F00
ENDCHAR
STARTCHAR 0052
ENCODING 82
SWIDTH 277 0
DWIDTH 20 0
BBX 18 32 0 0
BITMAP
FFFC00
FFFE00
FFFF00
FFFF80
FFFFC0
F80FC0
F807C0
F807C0
F807C0
F807C0
F807C0
F807C0
F807C0
F80FC0
FFFFC0
FFFF80
FFFF00
FFFE00
FFFC00
F87C00
F83C00
F83E00
F81E00
F81F00
F80F00
F80F80
F80780
F807C0
F807C0
F807C0
F807C0
F807C0
ENDCHAR
STARTCHAR 0053
ENCODING 83
SWIDTH 277 0
DWIDTH 20 0
BBX 18 32 0 0
BITMAP
0FFC00
1FFE00
3FFF00
7FFF80
FFFFC0
FC0FC0
F807C0
F807C0
F807C0
F807C0
F80000
F80000
F80000
FC0000
FFFC00
7FFE00
3FFF00
1FFF80
0FFFC0
000FC0
0007C0
0007C0
F807C0
F807C0
F807C0
F807C0
FC0FC0
FFFFC0
7FFF80
3FFF00
1FFE00
0FFC00
ENDCHAR
STARTCHAR 0054
ENCODING 84
SWIDTH 277 0
DWIDTH 20 0
BBX 18 32 0 0
BITMAP
FFFFC0
FFFFC0
FFFFC0
FFFFC0
FFFFC0
01E000
01E000
01E000
01E000
01E000
01E000
01E000
01E000
01E000
01E000
01E000
01E000
01E000
01E000
01E000
01E000
01E000
01E000
01E000
01E000
01E000
01E000
01E000
01E000
01E000
01E000
01E000
ENDCHAR
STARTCHAR 0055
ENCODING 85
SWIDTH 277 0
DWIDTH 20 0
BBX 18 32 0 0
BITMAP
F807C0
F807C0
F807C0
F807C0
F807C0
F807C0
F807C0
F807C0
F807C0
F807C0
F807C0
F807C0
F807C0
F807C0
F807C0
F807C0
F807C0
F807C0
F807C0
F807C0
F807C0
F807C0
F807C0
F807C0
F807C0
F807C0
FC0FC0
FFFFC0
7FFF80
3FFF00
1FFE00
0FFC00
ENDCHAR
STARTCHAR 0056
ENCODING 86
SWIDTH 277 0
DWIDTH 20 0
BBX 18 32 0 0
BITMAP
F807C0
F807C0
F807C0
F807C0
F807C0
F807C0
F807C0
F807C0
F807C0
F807C0
F807C0
F807C0
F807C0
F807C0
F807C0
F807C0
F807C0
F807C0
F807C0
780780
7C0F80
3C0F00
3E1F00
1E1E00
1F3E00
0F3C00
0FFC00
07F800
07F800
03F000
03F000
03F000
ENDCHAR
STARTCHAR 0057
ENCODING 87
SWIDTH 277 0
DWIDTH 20 0
BBX 18 32 0 0
BITMAP
F807C0
F807C0
F807C0
F807C0
F807C0
F807C0
F807C0
F807C0
F807C0
F807C0
F807C0
F807C0
F807C0
F807C0
F887C0
F8C7C0
F8C7C0
F9E7C0
F9E7C0
FBF7C0
FBF7C0
FFFFC0
FFFFC0
FFFFC0
FF3FC0
FF3FC0
FE1FC0
FE1FC0
FC0FC0
FC0FC0
F807C0
F807C0
ENDCHAR
STARTCHAR 0058
ENCODING 88
SWIDTH 277 0
DWIDTH 20 0
BBX 18 32 0 0
BITMAP
F807C0
F807C0
F807C0
780780
7C0F80
3C0F00
3E1F00
1E1E00
1F3E00
0F3C00
0FFC00
07F800
07F800
03F000
03F000
03F000
03F000
03F000
03F000
07F800
07F800
0FFC00
0F3C00
1F3E00
1E1E00
3E1F00
3C0F00
7C0F80
780780
F807C0
F807C0
F807C0
ENDCHAR
STARTCHAR 0059
ENCODING 89
SWIDTH 277 0
DWIDTH 20 0
BBX 18 32 0 0
BITMAP
F807C0
F807C0
F807C0
780780
7C0F80
3C0F00
3E1F00
1E1E00
1F3E00
0F3C00
0FFC00
07F800
07F800
03F000
03F000
03F000
01E000
01E000
01E000
01E000
01E000
01E000
01E000
01E000
01E000
01E000
01E000
01E000
01E000
01E000
01E000
01E000
ENDCHAR
STARTCHAR 005A
ENCODING 90
SWIDTH 277 0
DWIDTH 20 0
BBX 18 32 0 0
BITMAP
FFFFC0
FFFFC0
FFFFC0
FFFF80
FFFF80
000F00
000F00
001E00
001E00
003C00
003C00
007800
007800
00F000
00F000
01E000
01E000
03C000
03C000
078000
078000
0F0000
0F0000
1E0000
1E0000
3C0000
3C0000
7FFFC0
7FFFC0
FFFFC0
FFFFC0
FFFFC0
ENDCHAR
STARTCHAR 005B
ENCODING 91
SWIDTH 277 0
DWIDTH 20 0
BBX 10 41 4 -5
BITMAP
FFC0
FFC0
FFC0
FFC0
FFC0
F800
F800
F800
F800
F800
F800
F800
F800
F800
F800
F800
F800
F800
F800
F800
F800
F800
F800
F800
F800
F800
F800
F800
F800
F800
F800
F800
F800
F800
F800
F800
FFC0
FFC0
FFC0
FFC0
FFC0
ENDCHAR
STARTCHAR 005C
ENCODING 92
SWIDTH 277 0
DWIDTH 20 0
BBX 18 32 0 0
BITMAP
F80000
F80000
F80000
780000
7C0000
3C0000
3E0000
1E0000
1F0000
0F0000
0F8000
078000
07C000
03C000
03E000
03E000
01F000
01F000
00F000
00F800
007800
007C00
003C00
003E00
001E00
001F00
000F00
000F80
000780
0007C0
0007C0
0007C0
ENDCHAR
STARTCHAR 005D
ENCODING 93
SWIDTH 277 0
DWIDTH 20 0
BBX 10 41 4 -5
BITMAP
FFC0
FFC0
FFC0
FFC0
FFC0
07C0
07C0
07C0
07C0
07C0
07C0
07C0
07C0
07C0
07C0
07C0
07C0
07C0
07C0
07C0
07C0
07C0
07C0
07C0
07C0
07C0
07C0
07C0
07C0
07C0
07C0
07C0
07C0
07C0
07C0
07C0
FFC0
FFC0
FFC0
FFC0
FFC0
ENDCHAR
STARTCHAR 005E
ENCODING 94
SWIDTH 277 0
DWIDTH 20 0
BBX 14 14 2 18
BITMAP
0200
0300
0300
0780
0780
0FC0
0FC0
1FE0
1CE0
3CF0
3870
7878
7038
F03C
ENDCHAR
STARTCHAR 005F
ENCODING 95
SWIDTH 277 0
DWIDTH 20 0
BBX 18 5 0 -5
BITMAP
FFFFC0
FFFFC0
FFFFC0
FFFFC0
FFFFC0
ENDCHAR
STARTCHAR 0060
ENCODING 96
SWIDTH 277 0
DWIDTH 20 0
BBX 10 12 4 20
BITMAP
F000
7800
3800
3C00
1C00
1C00
0E00
0E00
0F00
0700
0780
03C0
ENDCHAR
STARTCHAR 0061
ENCODING 97
SWIDTH 277 0
DWIDTH 20 0
BBX 18 23 0 0
BITMAP
0FF7C0
1FFFC0
3FFFC0
7FFFC0
FFFFC0
FC0FC0
F807C0
F807C0
F807C0
F807C0
F807C0
F807C0
F807C0
F807C0
F807C0
F807C0
F807C0
FC0FC0
FFFFC0
7FFFC0
3FFFC0
1FFFC0
0FF7C0
ENDCHAR
STARTCHAR 0062
ENCODING 98
SWIDTH 277 0
DWIDTH 20 0
BBX 18 32 0 0
BITMAP
F80000
F80000
F80000
F80000
F80000
F80000
F80000
F80000
F80000
FBFC00
FFFE00
FFFF00
FFFF80
FFFFC0
FC0FC0
F807C0
F807C0
F807C0
F807C0
F807C0
F807C0
F807C0
F807C0
F807C0
F807C0
F807C0
FC0FC0
FFFFC0
FFFF80
FFFF00
FFFE00
FBFC00
ENDCHAR
STARTCHAR 0063
ENCODING 99
SWIDTH 277 0
DWIDTH 20 0
BBX 18 23 0 0
BITMAP
0FFC00
1FFE00
3FFF00
7FFF80
FFFFC0
FC0FC0
F807C0
F807C0
F80000
F80000
F80000
F80000
F80000
F80000
F80000
F807C0
F807C0
FC0FC0
FFFFC0
7FFF80
3FFF00
1FFE00
0FFC00
ENDCHAR
STARTCHAR 0064
ENCODING 100
SWIDTH 277 0
DWIDTH 20 0
BBX 18 32 0 0
BITMAP
0007C0
0007C0
0007C0
0007C0
0007C0
0007C0
0007C0
0007C0
0007C0
0FF7C0
1FFFC0
3FFFC0
7FFFC0
FFFFC0
FC0FC0
F807C0
F807C0
F807C0
F807C0
F807C0
F807C0
F807C0
F807C0
F807C0
F807C0
F807C0
FC0FC0
FFFFC0
7FFFC0
3FFFC0
1FFFC0
0FF7C0
ENDCHAR
STARTCHAR 0065
ENCODING 101
SWIDTH 277 0
DWIDTH 20 0
BBX 18 23 0 0
BITMAP
0FFC00
1FFE00
3FFF00
7FFF80
FFFFC0
FC0FC0
F807C0
F807C0
F807C0
FFFFC0
FFFFC0
FFFFC0
FFFFC0
FFFFC0
F80000
F80000
F807C0
FC0FC0
FFFFC0
7FFF80
3FFF00
1FFE00
0FFC00
ENDCHAR
STARTCHAR 0066
ENCODING 102
SWIDTH 277 0
DWIDTH 20 0
BBX 18 32 0 0
BITMAP
03FC00
07FE00
0FFF00
1FFF80
3FFFC0
3F0FC0
3E07C0
3E0000
3E0000
FFFF00
FFFF00
FFFF00
FFFF00
FFFF00
3E0000
3E0000
3E0000
3E0000
3E0000
3E0000
3E0000
3E0000
3E0000
3E0000
3E0000
3E0000
3E0000
3E0000
3E0000
3E0000
3E0000
3E0000
ENDCHAR
STARTCHAR 0067
ENCODING 103
SWIDTH 277 0
DWIDTH 20 0
BBX 18 34 0 -11
BITMAP
0FF7C0
1FFFC0
3FFFC0
7FFFC0
FFFFC0
FC0FC0
F807C0
F807C0
F807C0
F807C0
F807C0
F807C0
F807C0
F807C0
F807C0
F807C0
F807C0
FC0FC0
FFFFC0
7FFFC0
3FFFC0
1FFFC0
0FF7C0
0007C0
F807C0
F807C0
F807C0
F807C0
FC0FC0
FFFFC0
7FFF80
3FFF00
1FFE00
0FFC00
ENDCHAR
STARTCHAR 0068
ENCODING 104
SWIDTH 277 0
DWIDTH 20 0
BBX 18 32 0 0
BITMAP
F80000
F80000
F80000
F80000
F80000
F80000
F80000
F80000
F80000
FBFC00
FFFE00
FFFF00
FFFF80
FFFFC0
FC0FC0
F807C0
F807C0
F807C0
F807C0
F807C0
F807C0
F807C0
F807C0
F807C0
F807C0
F807C0
F807C0
F807C0
F807C0
F807C0
F807C0
F807C0
ENDCHAR
STARTCHAR 0069
ENCODING 105
SWIDTH 277 0
DWIDTH 20 0
BBX 18 32 0 0
BITMAP
01E000
01E000
01E000
01E000
01E000
000000
000000
000000
000000
0FE000
0FE000
0FE000
0FE000
0FE000
01E000
01E000
01E000
01E000
01E000
01E000
01E000
01E000
01E000
01E000
01E000
01E000
01E000
FFFFC0
FFFFC0
FFFFC0
FFFFC0
FFFFC0
ENDCHAR
STARTCHAR 006A
ENCODING 106
SWIDTH 277 0
DWIDTH 20 0
BBX 18 43 0 -11
BITMAP
0007C0
0007C0
0007C0
0007C0
0007C0
000000
000000
000000
000000
001FC0
001FC0
001FC0
001FC0
0007C0
0007C0
0007C0
0007C0
0007C0
0007C0
0007C0
0007C0
0007C0
0007C0
0007C0
0007C0
0007C0
0007C0
0007C0
0007C0
0007C0
0007C0
0007C0
0007C0
F807C0
F807C0
F807C0
F807C0
FC0FC0
FFFFC0
7FFF80
3FFF00
1FFE00
0FFC00
ENDCHAR
STARTCHAR 006B
ENCODING 107
SWIDTH 277 0
DWIDTH 20 0
BBX 18 32 0 0
BITMAP
F80000
F80000
F80000
F80000
F80000
F80000
F80000
F80000
F80000
F807C0
F807C0
F807C0
F807C0
F807C0
F80FC0
F83FC0
F8FF80
FBFE00
FFF800
FFE000
FFF800
FFFE00
FCFF80
F83FC0
F80FC0
F807C0
F807C0
F807C0
F807C0
F807C0
F807C0
F807C0
ENDCHAR
STARTCHAR 006C
ENCODING 108
SWIDTH 277 0
DWIDTH 20 0
BBX 18 32 0 0
BITMAP
3FE000
3FE000
3FE000
3FE000
3FE000
01E000
01E000
01E000
01E000
01E000
01E000
01E000
01E000
01E000
01E000
01E000
01E000
01E000
01E000
01E000
01E000
01E000
01E000
01E000
01E000
01E000
01E000
FFFFC0
FFFFC0
FFFFC0
FFFFC0
FFFFC0
ENDCHAR
STARTCHAR 006D
ENCODING 109
SWIDTH 277 0
DWIDTH 20 0
BBX 18 23 0 0
BITMAP
FBDC00
FFFE00
FFFF00
FFFF80
FFFFC0
FFFFC0
FBF7C0
F9E7C0
F9E7C0
F9E7C0
F9E7C0
F9E7C0
F9E7C0
F9E7C0
F9E7C0
F9E7C0
F9E7C0
F9E7C0
F9E7C0
F9E7C0
F9E7C0
F9E7C0
F9E7C0
ENDCHAR
STARTCHAR 006E
ENCODING 110
SWIDTH 277 0
DWIDTH 20 0
BBX 18 23 0 0
BITMAP
FBFC00
FFFE00
FFFF00
FFFF80
FFFFC0
FC0FC0
F807C0
F807C0
F807C0
F807C0
F807C0
F807C0
F807C0
F807C0
F807C0
F807C0
F807C0
F807C0
F807C0
F807C0
F807C0
F807C0
F807C0
ENDCHAR
STARTCHAR 006F
ENCODING 111
SWIDTH 277 0
DWIDTH 20 0
BBX 18 23 0 0
BITMAP
0FFC00
1FFE00
3FFF00
7FFF80
FFFFC0
FC0FC0
F807C0
F807C0
F807C0
F807C0
F807C0
F807C0
F807C0
F807C0
F807C0
F807C0
F807C0
FC0FC0
FFFFC0
7FFF80
3FFF00
1FFE00
0FFC00
ENDCHAR
STARTCHAR 0070
ENCODING 112
SWIDTH 277 0
DWIDTH 20 0
BBX 18 34 0 -11
BITMAP
FBFC00
FFFE00
FFFF00
FFFF80
FFFFC0
FC0FC0
F807C0
F807C0
F807C0
F807C0
F807C0
F807C0
F807C0
F807C0
F807C0
F807C0
F807C0
FC0FC0
FFFFC0
FFFF80
FFFF00
FFFE00
FBFC00
F80000
F80000
F80000
F80000
F80000
F80000
F80000
F80000
F80000
F80000
F80000
ENDCHAR
STARTCHAR 0071
ENCODING 113
SWIDTH 277 0
DWIDTH 20 0
BBX 18 34 0 -11
BITMAP
0FF7C0
1FFFC0
3FFFC0
7FFFC0
FFFFC0
FC0FC0
F807C0
F807C0
F807C0
F807C0
F807C0
F807C0
F807C0
F807C0
F807C0
F807C0
F807C0
FC0FC0
FFFFC0
7FFFC0
3FFFC0
1FFFC0
0FF7C0
0007C0
0007C0
0007C0
0007C0
0007C0
0007C0
0007C0
0007C0
0007C0
0007C0
0007C0
ENDCHAR
STARTCHAR 0072
ENCODING 114
SWIDTH 277 0
DWIDTH 20 0
BBX 18 23 0 0
BITMAP
FBFC00
FFFE00
FFFF00
FFFF80
FFFFC0
FC0FC0
F807C0
F807C0
F80000
F80000
F80000
F80000
F80000
F80000
F80000
F80000
F80000
F80000
F80000
F80000
F80000
F80000
F80000
ENDCHAR
STARTCHAR 0073
ENCODING 115
SWIDTH 277 0
DWIDTH 20 0
BBX 18 23 0 0
BITMAP
0FFC00
1FFE00
3FFF00
7FFF80
FFFFC0
FC0FC0
F807C0
F807C0
FC0000
FFFC00
7FFE00
3FFF00
1FFF80
0FFFC0
000FC0
F807C0
F807C0
FC0FC0
FFFFC0
7FFF80
3FFF00
1FFE00
0FFC00
ENDCHAR
STARTCHAR 0074
ENCODING 116
SWIDTH 277 0
DWIDTH 20 0
BBX 18 32 0 0
BITMAP
3E0000
3E0000
3E0000
3E0000
3E0000
3E0000
3E0000
3E0000
3E0000
FFFF00
FFFF00
FFFF00
FFFF00
FFFF00
3E0000
3E0000
3E0000
3E0000
3E0000
3E0000
3E0000
3E0000
3E0000
3E0000
3E0000
3E07C0
3F0FC0
3FFFC0
1FFF80
0FFF00
07FE00
03FC00
ENDCHAR
STARTCHAR 0075
ENCODING 117
SWIDTH 277 0
DWIDTH 20 0
BBX 18 23 0 0
BITMAP
F807C0
F807C0
F807C0
F807C0
F807C0
F807C0
F807C0
F807C0
F807C0
F807C0
F807C0
F807C0
F807C0
F807C0
F807C0
F807C0
F807C0
FC0FC0
FFFFC0
7FFFC0
3FFFC0
1FFFC0
0FF7C0
ENDCHAR
STARTCHAR 0076
ENCODING 118
SWIDTH 277 0
DWIDTH 20 0
BBX 18 23 0 0
BITMAP
F807C0
F807C0
F807C0
F807C0
F807C0
F807C0
F807C0
F807C0
F807C0
F807C0
780780
7C0F80
3C0F00
3E1F00
1E1E00
1F3E00
0F3C00
0FFC00
07F800
07F800
03F000
03F000
03F000
ENDCHAR
STARTCHAR 0077
ENCODING 119
SWIDTH 277 0
DWIDTH 20 0
BBX 18 23 0 0
BITMAP
F807C0
F807C0
F807C0
F807C0
F807C0
F807C0
F807C0
F807C0
F807C0
F807C0
F807C0
F9E7C0
F9E7C0
F9E7C0
F9E7C0
F9E7C0
FBF7C0
FFFFC0
FFFFC0
7FFF80
3FFF00
1F3E00
0E1C00
ENDCHAR
STARTCHAR 0078
ENCODING 120
SWIDTH 277 0
DWIDTH 20 0
BBX 18 23 0 0
BITMAP
F807C0
F807C0
F807C0
F807C0
F807C0
F807C0
F807C0
FC0FC0
FF3FC0
7FFF80
1FFE00
0FFC00
1FFE00
7FFF80
FF3FC0
FC0FC0
F807C0
F807C0
F807C0
F807C0
F807C0
F807C0
F807C0
ENDCHAR
STARTCHAR 0079
ENCODING 121
SWIDTH 277 0
DWIDTH 20 0
BBX 18 34 0 -11
BITMAP
F807C0
F807C0
F807C0
F807C0
F807C0
F807C0
F807C0
F807C0
F807C0
F807C0
780780
7C0F80
3C0F00
3E1F00
1E1E00
1F3E00
0F3C00
0FFC00
07F800
07F800
03F000
03F000
01E000
03E000
03C000
07C000
078000
0F8000
0F0000
1F0000
1E0000
3E0000
3C0000
7C0000
ENDCHAR
STARTCHAR 007A
ENCODING 122
SWIDTH 277 0
DWIDTH 20 0
BBX 18 23 0 0
BITMAP
FFFFC0
FFFFC0
FFFFC0
FFFFC0
FFFFC0
000FC0
001F80
003F00
007E00
00FC00
01F800
03F000
07E000
0FC000
1F8000
3F0000
7E0000
FC0000
FFFFC0
FFFFC0
FFFFC0
FFFFC0
FFFFC0
ENDCHAR
STARTCHAR 007B
ENCODING 123
SWIDTH 277 0
DWIDTH 20 0
BBX 14 41 2 -5
BITMAP
007C
00FC
01FC
03FC
07FC
07E0
07C0
0780
0780
0780
0780
0780
0780
0780
0780
0780
0780
0780
0F80
3F80
FE00
3F80
0F80
0780
0780
0780
0780
0780
0780
0780
0780
0780
0780
0780
07C0
07E0
07FC
03FC
01FC
00FC
007C
ENDCHAR
STARTCHAR 007C
ENCODING 124
SWIDTH 277 0
DWIDTH 20 0
BBX 4 41 7 -5
BITMAP
F0
F0
F0
F0
F0
F0
F0
F0
F0
F0
F0
F0
F0
F0
F0
F0
F0
F0
F0
F0
F0
F0
F0
F0
F0
F0
F0
F0
F0
F0
F0
F0
F0
F0
F0
F0
F0
F0
F0
F0
F0
ENDCHAR
STARTCHAR 007D
ENCODING 125
SWIDTH 277 0
DWIDTH 20 0
BBX 14 41 2 -5
BITMAP
F800
FC00
FE00
FF00
FF80
1F80
0F80
0780
0780
0780
0780
0780
0780
0780
0780
0780
0780
0780
07C0
07F0
01FC
07F0
07C0
0780
0780
0780
0780
0780
0780
0780
0780
0780
0780
0780
0F80
1F80
FF80
FF00
FE00
FC00
F800
ENDCHAR
STARTCHAR 007E
ENCODING 126
SWIDTH 277 0
DWIDTH 20 0
BBX 14 9 2 11
BITMAP
383C
7C3C
FE3C
FF3C
FFFC
F3FC
F1FC
F0F8
F070
ENDCHAR
STARTCHAR 00A1
ENCODING 161
SWIDTH 277 0
DWIDTH 20 0
BBX 4 32 7 -11
BITMAP
F0
F0
F0
F0
F0
00
00
00
00
F0
F0
F0
F0
F0
F0
F0
F0
F0
F0
F0
F0
F0
F0
F0
F0
F0
F0
F0
F0
F0
F0
F0
ENDCHAR
STARTCHAR 00A2
ENCODING 162
SWIDTH 277 0
DWIDTH 20 0
BBX 18 32 0 0
BITMAP
01E000
01E000
01E000
01E000
01E000
0FFC00
1FFE00
3FFF00
7FFF80
FDEFC0
F9E7C0
F9E7C0
F9E7C0
F9E000
F9E000
F9E000
F9E000
F9E000
F9E000
F9E7C0
F9E7C0
F9E7C0
FDEFC0
7FFF80
3FFF00
1FFE00
0FFC00
01E000
01E000
01E000
01E000
01E000
ENDCHAR
STARTCHAR 00A3
ENCODING 163
SWIDTH 277 0
DWIDTH 20 0
BBX 18 32 0 0
BITMAP
00FC00
01FE00
03FF00
07FF80
0FC7C0
0F87C0
0F87C0
0F8000
0F8000
0F8000
0F8000
0F8000
0F8000
3FFC00
3FFC00
3FFC00
3FFC00
3FFC00
0F8000
0F8000
0F8000
0F8000
0F8000
1F8000
3F8000
7F0000
FE0000
FFFFC0
FFFFC0
FFFFC0
FFFFC0
FFFFC0
ENDCHAR
STARTCHAR 00A4
ENCODING 164
SWIDTH 277 0
DWIDTH 20 0
BBX 18 18 0 7
BITMAP
200100
700380
FBF7C0
7FFF80
3FFF00
1FFE00
3F3F00
3E1F00
3C0F00
3C0F00
3E1F00
3F3F00
1FFE00
3FFF00
7FFF80
FBF7C0
700380
200100
ENDCHAR
STARTCHAR 00A5
ENCODING 165
SWIDTH 277 0
DWIDTH 20 0
BBX 18 31 0 0
BITMAP
F807C0
780780
7C0F80
3C0F00
3E1F00
1E1E00
1F3E00
0F3C00
0FFC00
07F800
07F800
03F000
03F000
3FFF00
3FFF00
3FFF00
3FFF00
3FFF00
01E000
01E000
01E000
3FFF00
3FFF00
3FFF00
3FFF00
3FFF00
01E000
01E000
01E000
01E000
01E000
ENDCHAR
STARTCHAR 00A6
ENCODING 166
SWIDTH 277 0
DWIDTH 20 0
BBX 4 41 7 -5
BITMAP
F0
F0
F0
F0
F0
F0
F0
F0
F0
F0
F0
F0
F0
F0
F0
F0
00
00
00
00
00
00
00
00
00
F0
F0
F0
F0
F0
F0
F0
F0
F0
F0
F0
F0
F0
F0
F0
F0
ENDCHAR
STARTCHAR 00A7
ENCODING 167
SWIDTH 277 0
DWIDTH 20 0
BBX 18 43 0 -11
BITMAP
0FFC00
1FFE00
3FFF00
7FFF80
FFFFC0
FC0FC0
F807C0
F807C0
F80000
F80000
FC0000
FE0000
7F0000
3F8000
1FFC00
1FFE00
3FFF00
7FFF80
FFFFC0
FC0FC0
F807C0
F807C0
F807C0
F807C0
FC0FC0
FFFFC0
7FFF80
3FFF00
1FFE00
0FFF00
003F80
001FC0
000FC0
0007C0
0007C0
F807C0
F807C0
FC0FC0
FFFFC0
7FFF80
3FFF00
1FFE00
0FFC00
ENDCHAR
STARTCHAR 00A8
ENCODING 168
SWIDTH 277 0
DWIDTH 20 0
BBX 14 5 2 27
BITMAP
F87C
F87C
F87C
F87C
F87C
ENDCHAR
STARTCHAR 00A9
ENCODING 169
SWIDTH 277 0
DWIDTH 20 0
BBX 18 24 0 7
BITMAP
0FFC00
1FFE00
380700
700380
E3F1C0
C7F8C0
CF3CC0
CE1CC0
CE1CC0
CE00C0
CE00C0
CE00C0
CE00C0
CE00C0
CE00C0
CE1CC0
CE1CC0
CFFCC0
C7F8C0
E3F1C0
700380
380700
1FFE00
0FFC00
ENDCHAR
STARTCHAR 00AC
ENCODING 172
SWIDTH 277 0
DWIDTH 20 0
BBX 18 9 0 9
BITMAP
FFFFC0
FFFFC0
FFFFC0
FFFFC0
FFFFC0
0007C0
0007C0
0007C0
0007C0
ENDCHAR
STARTCHAR 00AD
ENCODING 173
SWIDTH 277 0
DWIDTH 20 0
BBX 10 5 4 13
BITMAP
FFC0
FFC0
FFC0
FFC0
FFC0
ENDCHAR
STARTCHAR 00AE
ENCODING 174
SWIDTH 277 0
DWIDTH 20 0
BBX 18 24 0 7
BITMAP
0FFC00
1FFE00
380700
700380
EFF1C0
CFF8C0
CE3CC0
CE1CC0
CE1CC0
CE1CC0
CE3CC0
CFF8C0
CFF0C0
CE60C0
CE30C0
CE30C0
CE18C0
CE18C0
CE1CC0
EE1DC0
700380
380700
1FFE00
0FFC00
ENDCHAR
STARTCHAR 00AF
ENCODING 175
SWIDTH 277 0
DWIDTH 20 0
BBX 14 5 2 27
BITMAP
FFFC
FFFC
FFFC
FFFC
FFFC
ENDCHAR
STARTCHAR 00B0
ENCODING 176
SWIDTH 277 0
DWIDTH 20 0
BBX 10 9 4 23
BITMAP
3F00
7F80
FFC0
E1C0
E1C0
E1C0
E1C0
7F80
3F00
ENDCHAR
STARTCHAR 00B1
ENCODING 177
SWIDTH 277 0
DWIDTH 20 0
BBX 18 27 0 2
BITMAP
01E000
01E000
01E000
01E000
01E000
01E000
FFFFC0
FFFFC0
FFFFC0
FFFFC0
FFFFC0
01E000
01E000
01E000
01E000
01E000
01E000
01E000
000000
000000
000000
000000
FFFFC0
FFFFC0
FFFFC0
FFFFC0
FFFFC0
ENDCHAR
STARTCHAR 00B4
ENCODING 180
SWIDTH 277 0
DWIDTH 20 0
BBX 10 12 4 20
BITMAP
03C0
0780
0700
0F00
0E00
0E00
1C00
1C00
3C00
3800
7800
F000
ENDCHAR
STARTCHAR 00B5
ENCODING 181
SWIDTH 277 0
DWIDTH 20 0
BBX 18 34 0 -11
BITMAP
F807C0
F807C0
F807C0
F807C0
F807C0
F807C0
F807C0
F807C0
F807C0
F807C0
F807C0
F807C0
F807C0
F807C0
F80FC0
F81FC0
F83FC0
FC7FC0
FFFFC0
FFF7C0
FFE7C0
FBC7C0
F987C0
F80000
F80000
F80000
F80000
F80000
F80000
F80000
F80000
F80000
F80000
F80000
ENDCHAR
STARTCHAR 00B6
ENCODING 182
SWIDTH 277 0
DWIDTH 20 0
BBX 18 43 0 -11
BITMAP
0FFFC0
1FFFC0
3FFFC0
7FFFC0
FFFFC0
FFE7C0
FFE7C0
FFE7C0
FFE7C0
FFE7C0
FFE7C0
FFE7C0
FFE7C0
FFE7C0
7FE7C0
3FE7C0
1FE7C0
0FE7C0
01E7C0
01E7C0
01E7C0
01E7C0
01E7C0
01E7C0
01E7C0
01E7C0
01E7C0
01E7C0
01E7C0
01E7C0
01E7C0
01E7C0
01E7C0
01E7C0
01E7C0
01E7C0
01E7C0
01E7C0
01E7C0
01E7C0
01E7C0
01E7C0
01E7C0
ENDCHAR
STARTCHAR 00B7
ENCODING 183
SWIDTH 277 0
DWIDTH 20 0
BBX 10 9 4 11
BITMAP
FFC0
FFC0
FFC0
FFC0
FFC0
FFC0
FFC0
FFC0
FFC0
ENDCHAR
STARTCHAR 00B8
ENCODING 184
SWIDTH 277 0
DWIDTH 20 0
BBX 10 8 4 -8
BITMAP
1E00
1F00
0F80
07C0
07C0
FFC0
FF80
FF00
ENDCHAR
STARTCHAR 00BF
ENCODING 191
SWIDTH 277 0
DWIDTH 20 0
BBX 18 32 0 -11
BITMAP
01E000
01E000
01E000
01E000
01E000
000000
000000
000000
000000
01E000
01E000
01E000
01E000
01E000
03E000
07E000
0FE000
1FC000
3F8000
7F0000
FE0000
FC0000
F807C0
F807C0
F807C0
F807C0
FC0FC0
FFFFC0
7FFF80
3FFF00
1FFE00
0FFC00
ENDCHAR
STARTCHAR 00C0
ENCODING 192
SWIDTH 277 0
DWIDTH 20 0
BBX 18 47 0 0
BITMAP
0F0000
078000
038000
03C000
01C000
01E000
00E000
00F000
007000
007800
003800
000400
000000
000000
000000
0FFC00
1FFE00
3FFF00
7FFF80
FFFFC0
FC0FC0
F807C0
F807C0
F807C0
F807C0
F807C0
F807C0
F807C0
F807C0
FFFFC0
FFFFC0
FFFFC0
FFFFC0
FFFFC0
F807C0
F807C0
F807C0
F807C0
F807C0
F807C0
F807C0
F807C0
F807C0
F807C0
F807C0
F807C0
F807C0
ENDCHAR
STARTCHAR 00C1
ENCODING 193
SWIDTH 277 0
DWIDTH 20 0
BBX 18 47 0 0
BITMAP
003C00
007800
007000
00F000
00E000
01E000
01C000
03C000
038000
078000
070000
080000
000000
000000
000000
0FFC00
1FFE00
3FFF00
7FFF80
FFFFC0
FC0FC0
F807C0
F807C0
F807C0
F807C0
F807C0
F807C0
F807C0
F807C0
FFFFC0
FFFFC0
FFFFC0
FFFFC0
FFFFC0
F807C0
F807C0
F807C0
F807C0
F807C0
F807C0
F807C0
F807C0
F807C0
F807C0
F807C0
F807C0
F807C0
ENDCHAR
STARTCHAR 00C2
ENCODING 194
SWIDTH 277 0
DWIDTH 20 0
BBX 18 47 0 0
BITMAP
008000
00C000
00C000
01E000
01E000
03F000
03F000
07F800
073800
0F3C00
0E1C00
100200
000000
000000
000000
000000
0FFC00
1FFE00
3FFF00
7FFF80
FC0FC0
F807C0
F807C0
F807C0
F807C0
F807C0
F807C0
F807C0
F807C0
FFFFC0
FFFFC0
FFFFC0
FFFFC0
FFFFC0
F807C0
F807C0
F807C0
F807C0
F807C0
F807C0
F807C0
F807C0
F807C0
F807C0
F807C0
F807C0
F807C0
ENDCHAR
STARTCHAR 00C3
ENCODING 195
SWIDTH 277 0
DWIDTH 20 0
BBX 18 45 0 0
BITMAP
0E0F00
1F0F00
3F8F00
3FCF00
3FFF00
3CFF00
3C7F00
3C3E00
3C1C00
000000
000000
000000
000000
0FFC00
1FFE00
3FFF00
7FFF80
FFFFC0
FC0FC0
F807C0
F807C0
F807C0
F807C0
F807C0
F807C0
F807C0
F807C0
FFFFC0
FFFFC0
FFFFC0
FFFFC0
FFFFC0
F807C0
F807C0
F807C0
F807C0
F807C0
F807C0
F807C0
F807C0
F807C0
F807C0
F807C0
F807C0
F807C0
ENDCHAR
STARTCHAR 00C4
ENCODING 196
SWIDTH 277 0
DWIDTH 20 0
BBX 18 41 0 0
BITMAP
3E1F00
3E1F00
3E1F00
3E1F00
3E1F00
000000
000000
000000
000000
0FFC00
1FFE00
3FFF00
7FFF80
FFFFC0
FC0FC0
F807C0
F807C0
F807C0
F807C0
F807C0
F807C0
F807C0
F807C0
FFFFC0
FFFFC0
FFFFC0
FFFFC0
FFFFC0
F807C0
F807C0
F807C0
F807C0
F807C0
F807C0
F807C0
F807C0
F807C0
F807C0
F807C0
F807C0
F807C0
ENDCHAR
STARTCHAR 00C5
ENCODING 197
SWIDTH 277 0
DWIDTH 20 0
BBX 18 45 0 0
BITMAP
03F000
07F800
0F3C00
0E1C00
0E1C00
0E1C00
0F3C00
07F800
03F000
000000
000000
000000
000000
0FFC00
1FFE00
3FFF00
7FFF80
FFFFC0
FC0FC0
F807C0
F807C0
F807C0
F807C0
F807C0
F807C0
F807C0
F807C0
FFFFC0
FFFFC0
FFFFC0
FFFFC0
FFFFC0
F807C0
F807C0
F807C0
F807C0
F807C0
F807C0
F807C0
F807C0
F807C0
F807C0
F807C0
F807C0
F807C0
ENDCHAR
STARTCHAR 00C7
ENCODING 199
SWIDTH 277 0
DWIDTH 20 0
BBX 18 40 0 -8
BITMAP
0FFC00
1FFE00
3FFF00
7FFF80
FFFFC0
FC0FC0
F807C0
F807C0
F807C0
F807C0
F80000
F80000
F80000
F80000
F80000
F80000
F80000
F80000
F80000
F80000
F80000
F80000
F80000
F807C0
F807C0
F807C0
FC0FC0
FE1FC0
7FFF80
3FFF00
1FFE00
0FFC00
01E000
01F000
00F800
007C00
007C00
0FFC00
0FF800
0FF000
ENDCHAR
STARTCHAR 00C8
ENCODING 200
SWIDTH 277 0
DWIDTH 20 0
BBX 18 47 0 0
BITMAP
0F0000
078000
038000
03C000
01C000
01E000
00E000
00F000
007000
007800
003800
000400
000000
000000
000000
FFFFC0
FFFFC0
FFFFC0
FFFFC0
FFFFC0
F80000
F80000
F80000
F80000
F80000
F80000
F80000
F80000
F80000
FFFC00
FFFC00
FFFC00
FFFC00
FFFC00
F80000
F80000
F80000
F80000
F80000
F80000
F80000
F80000
FFFFC0
FFFFC0
FFFFC0
FFFFC0
FFFFC0
ENDCHAR
STARTCHAR 00C9
ENCODING 201
SWIDTH 277 0
DWIDTH 20 0
BBX 18 47 0 0
BITMAP
003C00
007800
007000
00F000
00E000
01E000
01C000
03C000
038000
078000
070000
080000
000000
000000
000000
FFFFC0
FFFFC0
FFFFC0
FFFFC0
FFFFC0
F80000
F80000
F80000
F80000
F80000
F80000
F80000
F80000
F80000
FFFC00
FFFC00
FFFC00
FFFC00
FFFC00
F80000
F80000
F80000
F80000
F80000
F80000
F80000
F80000
FFFFC0
FFFFC0
FFFFC0
FFFFC0
FFFFC0
ENDCHAR
STARTCHAR 00CA
ENCODING 202
SWIDTH 277 0
DWIDTH 20 0
BBX 18 47 0 0
BITMAP
008000
00C000
00C000
01E000
01E000
03F000
03F000
07F800
073800
0F3C00
0E1C00
100200
000000
000000
000000
000000
FFFFC0
FFFFC0
FFFFC0
FFFFC0
F81FC0
F80000
F80000
F80000
F80000
F80000
F80000
F80000
F80000
FFFC00
FFFC00
FFFC00
FFFC00
F87C00
F80000
F80000
F80000
F80000
F80000
F80000
F80000
F80000
FFFFC0
FFFFC0
FFFFC0
FFFFC0
FFFFC0
ENDCHAR
STARTCHAR 00CB
ENCODING 203
SWIDTH 277 0
DWIDTH 20 0
BBX 18 41 0 0
BITMAP
3E1F00
3E1F00
3E1F00
3E1F00
3E1F00
000000
000000
000000
000000
FFFFC0
FFFFC0
FFFFC0
FFFFC0
FFFFC0
F80000
F80000
F80000
F80000
F80000
F80000
F80000
F80000
F80000
FFFC00
FFFC00
FFFC00
FFFC00
FFFC00
F80000
F80000
F80000
F80000
F80000
F80000
F80000
F80000
FFFFC0
FFFFC0
FFFFC0
FFFFC0
FFFFC0
ENDCHAR
STARTCHAR 00CC
ENCODING 204
SWIDTH 277 0
DWIDTH 20 0
BBX 18 47 0 0
BITMAP
0F0000
078000
038000
03C000
01C000
01E000
00E000
00F000
007000
007800
003800
000400
000000
000000
000000
FFFFC0
FFFFC0
FFFFC0
FFFFC0
FFFFC0
01E000
01E000
01E000
01E000
01E000
01E000
01E000
01E000
01E000
01E000
01E000
01E000
01E000
01E000
01E000
01E000
01E000
01E000
01E000
01E000
01E000
01E000
FFFFC0
FFFFC0
FFFFC0
FFFFC0
FFFFC0
ENDCHAR
STARTCHAR 00CD
ENCODING 205
SWIDTH 277 0
DWIDTH 20 0
BBX 18 47 0 0
BITMAP
003C00
007800
007000
00F000
00E000
01E000
01C000
03C000
038000
078000
070000
080000
000000
000000
000000
FFFFC0
FFFFC0
FFFFC0
FFFFC0
FFFFC0
01E000
01E000
01E000
01E000
01E000
01E000
01E000
01E000
01E000
01E000
01E000
01E000
01E000
01E000
01E000
01E000
01E000
01E000
01E000
01E000
01E000
01E000
FFFFC0
FFFFC0
FFFFC0
FFFFC0
FFFFC0
ENDCHAR
STARTCHAR 00CE
ENCODING 206
SWIDTH 277 0
DWIDTH 20 0
BBX 18 47 0 0
BITMAP
008000
00C000
00C000
01E000
01E000
03F000
03F000
07F800
073800
0F3C00
0E1C00
100200
000000
000000
000000
000000
FFFFC0
FFFFC0
FFFFC0
FFFFC0
FFFFC0
01E000
01E000
01E000
01E000
01E000
01E000
01E000
01E000
01E000
01E000
01E000
01E000
01E000
01E000
01E000
01E000
01E000
01E000
01E000
01E000
01E000
FFFFC0
FFFFC0
FFFFC0
FFFFC0
FFFFC0
ENDCHAR
STARTCHAR 00CF
ENCODING 207
SWIDTH 277 0
DWIDTH 20 0
BBX 18 41 0 0
BITMAP
3E1F00
3E1F00
3E1F00
3E1F00
3E1F00
000000
000000
000000
000000
FFFFC0
FFFFC0
FFFFC0
FFFFC0
FFFFC0
01E000
01E000
01E000
01E000
01E000
01E000
01E000
01E000
01E000
01E000
01E000
01E000
01E000
01E000
01E000
01E000
01E000
01E000
01E000
01E000
01E000
01E000
FFFFC0
FFFFC0
FFFFC0
FFFFC0
FFFFC0
ENDCHAR
STARTCHAR 00D0
ENCODING 208
SWIDTH 277 0
DWIDTH 20 0
BBX 18 32 0 0
BITMAP
3FF000
3FF800
3FFC00
3FFE00
3FFF00
3E7F80
3E3FC0
3E1FC0
3E0FC0
3E07C0
3E07C0
3E07C0
3E07C0
3E67C0
FFE7C0
FFE7C0
FFE7C0
FFE7C0
3E07C0
3E07C0
3E07C0
3E07C0
3E07C0
3E0FC0
3E1FC0
3E3FC0
3E7F80
3FFF00
3FFE00
3FFC00
3FF800
3FF000
ENDCHAR
STARTCHAR 00D1
ENCODING 209
SWIDTH 277 0
DWIDTH 20 0
BBX 18 45 0 0
BITMAP
0E0F00
1F0F00
3F8F00
3FCF00
3FFF00
3CFF00
3C7F00
3C3E00
3C1C00
000000
000000
000000
000000
E007C0
F007C0
F007C0
F807C0
F807C0
FC07C0
FC07C0
FE07C0
FE07C0
FF07C0
FF07C0
FF87C0
FF87C0
FFC7C0
FBC7C0
FBE7C0
F9E7C0
F9F7C0
F8F7C0
F8FFC0
F87FC0
F87FC0
F83FC0
F83FC0
F81FC0
F81FC0
F80FC0
F80FC0
F807C0
F807C0
F803C0
F803C0
ENDCHAR
STARTCHAR 00D2
ENCODING 210
SWIDTH 277 0
DWIDTH 20 0
BBX 18 47 0 0
BITMAP
0F0000
078000
038000
03C000
01C000
01E000
00E000
00F000
007000
007800
003800
000400
000000
000000
000000
0FFC00
1FFE00
3FFF00
7FFF80
FFFFC0
FC0FC0
F807C0
F807C0
F807C0
F807C0
F807C0
F807C0
F807C0
F807C0
F807C0
F807C0
F807C0
F807C0
F807C0
F807C0
F807C0
F807C0
F807C0
F807C0
F807C0
F807C0
FC0FC0
FFFFC0
7FFF80
3FFF00
1FFE00
0FFC00
ENDCHAR
STARTCHAR 00D3
ENCODING 211
SWIDTH 277 0
DWIDTH 20 0
BBX 18 47 0 0
BITMAP
003C00
007800
007000
00F000
00E000
01E000
01C000
03C000
038000
078000
070000
080000
000000
000000
000000
0FFC00
1FFE00
3FFF00
7FFF80
FFFFC0
FC0FC0
F807C0
F807C0
F807C0
F807C0
F807C0
F807C0
F807C0
F807C0
F807C0
F807C0
F807C0
F807C0
F807C0
F807C0
F807C0
F807C0
F807C0
F807C0
F807C0
F807C0
FC0FC0
FFFFC0
7FFF80
3FFF00
1FFE00
0FFC00
ENDCHAR
STARTCHAR 00D4
ENCODING 212
SWIDTH 277 0
DWIDTH 20 0
BBX 18 47 0 0
BITMAP
008000
00C000
00C000
01E000
01E000
03F000
03F000
07F800
073800
0F3C00
0E1C00
100200
000000
000000
000000
007C00
0FFE00
1FFF00
3FFF80
7FFFC0
FC0FC0
F807C0
F807C0
F807C0
F807C0
F807C0
F807C0
F807C0
F807C0
F807C0
F807C0
F807C0
F807C0
F807C0
F807C0
F807C0
F807C0
F807C0
F807C0
F807C0
F807C0
FC0FC0
FFFFC0
7FFF80
3FFF00
1FFE00
0FFC00
ENDCHAR
STARTCHAR 00D5
ENCODING 213
SWIDTH 277 0
DWIDTH 20 0
BBX 18 45 0 0
BITMAP
0E0F00
1F0F00
3F8F00
3FCF00
3FFF00
3CFF00
3C7F00
3C3E00
3C1C00
000000
000000
000000
000000
0FFC00
1FFE00
3FFF00
7FFF80
FFFFC0
FC0FC0
F807C0
F807C0
F807C0
F807C0
F807C0
F807C0
F807C0
F807C0
F807C0
F807C0
F807C0
F807C0
F807C0
F807C0
F807C0
F807C0
F807C0
F807C0
F807C0
F807C0
FC0FC0
FFFFC0
7FFF80
3FFF00
1FFE00
0FFC00
ENDCHAR
STARTCHAR 00D6
ENCODING 214
SWIDTH 277 0
DWIDTH 20 0
BBX 18 41 0 0
BITMAP
3E1F00
3E1F00
3E1F00
3E1F00
3E1F00
000000
000000
000000
000000
0FFC00
1FFE00
3FFF00
7FFF80
FFFFC0
FC0FC0
F807C0
F807C0
F807C0
F807C0
F807C0
F807C0
F807C0
F807C0
F807C0
F807C0
F807C0
F807C0
F807C0
F807C0
F807C0
F807C0
F807C0
F807C0
F807C0
F807C0
FC0FC0
FFFFC0
7FFF80
3FFF00
1FFE00
0FFC00
ENDCHAR
STARTCHAR 00D7
ENCODING 215
SWIDTH 277 0
DWIDTH 20 0
BBX 14 18 2 7
BITMAP
F87C
7CF8
7CF8
3FF0
3FF0
1FE0
1FE0
0FC0
0FC0
0FC0
0FC0
1FE0
1FE0
3FF0
3FF0
7CF8
7CF8
F87C
ENDCHAR
STARTCHAR 00D8
ENCODING 216
SWIDTH 277 0
DWIDTH 20 0
BBX 18 32 0 0
BITMAP
0FFC00
1FFE00
3FFF00
7FFF80
FFFFC0
FC0FC0
F80FC0
F81FC0
F81FC0
F83FC0
F83FC0
F87FC0
F87FC0
F8F7C0
F8F7C0
F9E7C0
F9E7C0
FBC7C0
FBC7C0
FF87C0
FF87C0
FF07C0
FF07C0
FE07C0
FE07C0
FC07C0
FC0FC0
FFFFC0
7FFF80
3FFF00
1FFE00
0FFC00
ENDCHAR
STARTCHAR 00D9
ENCODING 217
SWIDTH 277 0
DWIDTH 20 0
BBX 18 47 0 0
BITMAP
0F0000
078000
038000
03C000
01C000
01E000
00E000
00F000
007000
007800
003800
000400
000000
000000
000000
F807C0
F807C0
F807C0
F807C0
F807C0
F807C0
F807C0
F807C0
F807C0
F807C0
F807C0
F807C0
F807C0
F807C0
F807C0
F807C0
F807C0
F807C0
F807C0
F807C0
F807C0
F807C0
F807C0
F807C0
F807C0
F807C0
FC0FC0
FFFFC0
7FFF80
3FFF00
1FFE00
0FFC00
ENDCHAR
STARTCHAR 00DA
ENCODING 218
SWIDTH 277 0
DWIDTH 20 0
BBX 18 47 0 0
BITMAP
003C00
007800
007000
00F000
00E000
01E000
01C000
03C000
038000
078000
070000
080000
000000
000000
000000
F807C0
F807C0
F807C0
F807C0
F807C0
F807C0
F807C0
F807C0
F807C0
F807C0
F807C0
F807C0
F807C0
F807C0
F807C0
F807C0
F807C0
F807C0
F807C0
F807C0
F807C0
F807C0
F807C0
F807C0
F807C0
F807C0
FC0FC0
FFFFC0
7FFF80
3FFF00
1FFE00
0FFC00
ENDCHAR
STARTCHAR 00DB
ENCODING 219
SWIDTH 277 0
DWIDTH 20 0
BBX 18 47 0 0
BITMAP
008000
00C000
00C000
01E000
01E000
03F000
03F000
07F800
073800
0F3C00
0E1C00
100200
000000
000000
000000
000000
F807C0
F807C0
F807C0
F807C0
F807C0
F807C0
F807C0
F807C0
F807C0
F807C0
F807C0
F807C0
F807C0
F807C0
F807C0
F807C0
F807C0
F807C0
F807C0
F807C0
F807C0
F807C0
F807C0
F807C0
F807C0
FC0FC0
FFFFC0
7FFF80
3FFF00
1FFE00
0FFC00
ENDCHAR
STARTCHAR 00DC
ENCODING 220
SWIDTH 277 0
DWIDTH 20 0
BBX 18 41 0 0
BITMAP
3E1F00
3E1F00
3E1F00
3E1F00
3E1F00
000000
000000
000000
000000
F807C0
F807C0
F807C0
F807C0
F807C0
F807C0
F807C0
F807C0
F807C0
F807C0
F807C0
F807C0
F807C0
F807C0
F807C0
F807C0
F807C0
F807C0
F807C0
F807C0
F807C0
F807C0
F807C0
F807C0
F807C0
F807C0
FC0FC0
FFFFC0
7FFF80
3FFF00
1FFE00
0FFC00
ENDCHAR
STARTCHAR 00DD
ENCODING 221
SWIDTH 277 0
DWIDTH 20 0
BBX 18 47 0 0
BITMAP
003C00
007800
007000
00F000
00E000
01E000
01C000
03C000
038000
078000
070000
080000
000000
000000
000000
000000
F807C0
F807C0
F807C0
780780
7C0F80
3C0F00
3E1F00
1E1E00
1F3E00
0F3C00
0FFC00
07F800
07F800
03F000
03F000
01E000
01E000
01E000
01E000
01E000
01E000
01E000
01E000
01E000
01E000
01E000
01E000
01E000
01E000
01E000
01E000
ENDCHAR
STARTCHAR 00DE
ENCODING 222
SWIDTH 277 0
DWIDTH 20 0
BBX 18 32 0 0
BITMAP
F80000
F80000
F80000
F80000
F80000
F80000
F80000
FBFC00
FFFE00
FFFF00
FFFF80
FFFFC0
FC0FC0
F807C0
F807C0
F807C0
F807C0
F807C0
F807C0
F807C0
F807C0
F807C0
FC0FC0
FFFFC0
FFFF80
FFFF00
FFFE00
FBFC00
F80000
F80000
F80000
F80000
ENDCHAR
STARTCHAR 00DF
ENCODING 223
SWIDTH 277 0
DWIDTH 20 0
BBX 18 32 0 0
BITMAP
0FF000
1FF800
3FFC00
7FFE00
FFFF00
FC3F00
F81F00
F81F00
F83F00
F87E00
F8FC00
F9F800
F9F000
F9E000
F9F000
F9F800
F9FC00
F8FE00
F87F00
F83F80
F81FC0
F80FC0
F807C0
F807C0
F807C0
F807C0
FA0FC0
F9FFC0
F9FF80
F9FF00
F9FE00
F8FC00
ENDCHAR
STARTCHAR 00E0
ENCODING 224
SWIDTH 277 0
DWIDTH 20 0
BBX 18 38 0 0
BITMAP
0F0000
078000
038000
03C000
01C000
01E000
00E000
00F000
007000
007800
003800
000400
000000
000000
000000
0FF7C0
1FFFC0
3FFFC0
7FFFC0
FFFFC0
FC0FC0
F807C0
F807C0
F807C0
F807C0
F807C0
F807C0
F807C0
F807C0
F807C0
F807C0
F807C0
FC0FC0
FFFFC0
7FFFC0
3FFFC0
1FFFC0
0FF7C0
ENDCHAR
STARTCHAR 00E1
ENCODING 225
SWIDTH 277 0
DWIDTH 20 0
BBX 18 38 0 0
BITMAP
003C00
007800
007000
00F000
00E000
01E000
01C000
03C000
038000
078000
070000
080000
000000
000000
000000
0FF7C0
1FFFC0
3FFFC0
7FFFC0
FFFFC0
FC0FC0
F807C0
F807C0
F807C0
F807C0
F807C0
F807C0
F807C0
F807C0
F807C0
F807C0
F807C0
FC0FC0
FFFFC0
7FFFC0
3FFFC0
1FFFC0
0FF7C0
ENDCHAR
STARTCHAR 00E2
ENCODING 226
SWIDTH 277 0
DWIDTH 20 0
BBX 18 38 0 0
BITMAP
008000
00C000
00C000
01E000
01E000
03F000
03F000
07F800
073800
0F3C00
0E1C00
100200
000000
000000
000000
00F0C0
0FFFC0
1FFFC0
3FFFC0
7FFFC0
FC0FC0
F807C0
F807C0
F807C0
F807C0
F807C0
F807C0
F807C0
F807C0
F807C0
F807C0
F807C0
FC0FC0
FFFFC0
7FFFC0
3FFFC0
1FFFC0
0FF7C0
ENDCHAR
STARTCHAR 00E3
ENCODING 227
SWIDTH 277 0
DWIDTH 20 0
BBX 18 36 0 0
BITMAP
0E0F00
1F0F00
3F8F00
3FCF00
3FFF00
3CFF00
3C7F00
3C3E00
3C1C00
000000
000000
000000
000000
0FF7C0
1FFFC0
3FFFC0
7FFFC0
FFFFC0
FC0FC0
F807C0
F807C0
F807C0
F807C0
F807C0
F807C0
F807C0
F807C0
F807C0
F807C0
F807C0
FC0FC0
FFFFC0
7FFFC0
3FFFC0
1FFFC0
0FF7C0
ENDCHAR
STARTCHAR 00E4
ENCODING 228
SWIDTH 277 0
DWIDTH 20 0
BBX 18 32 0 0
BITMAP
3E1F00
3E1F00
3E1F00
3E1F00
3E1F00
000000
000000
000000
000000
0FF7C0
1FFFC0
3FFFC0
7FFFC0
FFFFC0
FC0FC0
F807C0
F807C0
F807C0
F807C0
F807C0
F807C0
F807C0
F807C0
F807C0
F807C0
F807C0
FC0FC0
FFFFC0
7FFFC0
3FFFC0
1FFFC0
0FF7C0
ENDCHAR
STARTCHAR 00E5
ENCODING 229
SWIDTH 277 0
DWIDTH 20 0
BBX 18 36 0 0
BITMAP
03F000
07F800
0F3C00
0E1C00
0E1C00
0E1C00
0F3C00
07F800
03F000
000000
000000
000000
000000
0FF7C0
1FFFC0
3FFFC0
7FFFC0
FFFFC0
FC0FC0
F807C0
F807C0
F807C0
F807C0
F807C0
F807C0
F807C0
F807C0
F807C0
F807C0
F807C0
FC0FC0
FFFFC0
7FFFC0
3FFFC0
1FFFC0
0FF7C0
ENDCHAR
STARTCHAR 00E7
ENCODING 231
SWIDTH 277 0
DWIDTH 20 0
BBX 18 31 0 -8
BITMAP
0FFC00
1FFE00
3FFF00
7FFF80
FFFFC0
FC0FC0
F807C0
F807C0
F80000
F80000
F80000
F80000
F80000
F80000
F80000
F807C0
F807C0
FC0FC0
FE1FC0
7FFF80
3FFF00
1FFE00
0FFC00
01E000
01F000
00F800
007C00
007C00
0FFC00
0FF800
0FF000
ENDCHAR
STARTCHAR 00E8
ENCODING 232
SWIDTH 277 0
DWIDTH 20 0
BBX 18 38 0 0
BITMAP
0F0000
078000
038000
03C000
01C000
01E000
00E000
00F000
007000
007800
003800
000400
000000
000000
000000
0FFC00
1FFE00
3FFF00
7FFF80
FFFFC0
FC0FC0
F807C0
F807C0
F807C0
FFFFC0
FFFFC0
FFFFC0
FFFFC0
FFFFC0
F80000
F80000
F807C0
FC0FC0
FFFFC0
7FFF80
3FFF00
1FFE00
0FFC00
ENDCHAR
STARTCHAR 00E9
ENCODING 233
SWIDTH 277 0
DWIDTH 20 0
BBX 18 38 0 0
BITMAP
003C00
007800
007000
00F000
00E000
01E000
01C000
03C000
038000
078000
070000
080000
000000
000000
000000
0FFC00
1FFE00
3FFF00
7FFF80
FFFFC0
FC0FC0
F807C0
F807C0
F807C0
FFFFC0
FFFFC0
FFFFC0
FFFFC0
FFFFC0
F80000
F80000
F807C0
FC0FC0
FFFFC0
7FFF80
3FFF00
1FFE00
0FFC00
ENDCHAR
STARTCHAR 00EA
ENCODING 234
SWIDTH 277 0
DWIDTH 20 0
BBX 18 38 0 0
BITMAP
008000
00C000
00C000
01E000
01E000
03F000
03F000
07F800
073800
0F3C00
0E1C00
100200
000000
000000
001C00
01FE00
0FFF00
1FFF80
3FFFC0
7C0FC0
F807C0
F807C0
F807C0
F807C0
FFFFC0
FFFFC0
FFFFC0
FFFFC0
FFFFC0
F80000
F80000
F807C0
FC0FC0
FFFFC0
7FFF80
3FFF00
1FFE00
0FFC00
ENDCHAR
STARTCHAR 00EB
ENCODING 235
SWIDTH 277 0
DWIDTH 20 0
BBX 18 32 0 0
BITMAP
3E1F00
3E1F00
3E1F00
3E1F00
3E1F00
000000
000000
000000
000000
0FFC00
1FFE00
3FFF00
7FFF80
FFFFC0
FC0FC0
F807C0
F807C0
F807C0
FFFFC0
FFFFC0
FFFFC0
FFFFC0
FFFFC0
F80000
F80000
F807C0
FC0FC0
FFFFC0
7FFF80
3FFF00
1FFE00
0FFC00
ENDCHAR
STARTCHAR 00EC
ENCODING 236
SWIDTH 277 0
DWIDTH 20 0
BBX 18 38 0 0
BITMAP
0F0000
078000
038000
03C000
01C000
01E000
00E000
00F000
007000
007800
003800
000400
000000
000000
000000
0FE000
0FE000
0FE000
0FE000
0FE000
01E000
01E000
01E000
01E000
01E000
01E000
01E000
01E000
01E000
01E000
01E000
01E000
01E000
FFFFC0
FFFFC0
FFFFC0
FFFFC0
FFFFC0
ENDCHAR
STARTCHAR 00ED
ENCODING 237
SWIDTH 277 0
DWIDTH 20 0
BBX 18 38 0 0
BITMAP
003C00
007800
007000
00F000
00E000
01E000
01C000
03C000
038000
078000
070000
080000
000000
000000
000000
0FE000
0FE000
0FE000
0FE000
0FE000
01E000
01E000
01E000
01E000
01E000
01E000
01E000
01E000
01E000
01E000
01E000
01E000
01E000
FFFFC0
FFFFC0
FFFFC0
FFFFC0
FFFFC0
ENDCHAR
STARTCHAR 00EE
ENCODING 238
SWIDTH 277 0
DWIDTH 20 0
BBX 18 38 0 0
BITMAP
008000
00C000
00C000
01E000
01E000
03F000
03F000
07F800
073800
0F3C00
0E1C00
100200
000000
000000
000000
000000
0FE000
0FE000
0FE000
0FE000
01E000
01E000
01E000
01E000
01E000
01E000
01E000
01E000
01E000
01E000
01E000
01E000
01E000
FFFFC0
FFFFC0
FFFFC0
FFFFC0
FFFFC0
ENDCHAR
STARTCHAR 00EF
ENCODING 239
SWIDTH 277 0
DWIDTH 20 0
BBX 18 32 0 0
BITMAP
3E1F00
3E1F00
3E1F00
3E1F00
3E1F00
000000
000000
000000
000000
0FE000
0FE000
0FE000
0FE000
0FE000
01E000
01E000
01E000
01E000
01E000
01E000
01E000
01E000
01E000
01E000
01E000
01E000
01E000
FFFFC0
FFFFC0
FFFFC0
FFFFC0
FFFFC0
ENDCHAR
STARTCHAR 00F0
ENCODING 240
SWIDTH 277 0
DWIDTH 20 0
BBX 18 34 0 0
BITMAP
020000
0E0000
3F0400
1F1C00
1FFE00
0FFE00
0FFF00
1FFC00
7FF000
FFE000
7FF000
7FF000
39F800
20F800
00FC00
007C00
0FFE00
1FFE00
3FFF00
7FFF00
FFFF80
FC0F80
F80FC0
F807C0
F807C0
F807C0
F807C0
F807C0
FC0FC0
FFFFC0
7FFF80
3FFF00
1FFE00
0FFC00
ENDCHAR
STARTCHAR 00F1
ENCODING 241
SWIDTH 277 0
DWIDTH 20 0
BBX 18 36 0 0
BITMAP
0E0F00
1F0F00
3F8F00
3FCF00
3FFF00
3CFF00
3C7F00
3C3E00
3C1C00
000000
000000
000000
000000
FBFC00
FFFE00
FFFF00
FFFF80
FFFFC0
FC0FC0
F807C0
F807C0
F807C0
F807C0
F807C0
F807C0
F807C0
F807C0
F807C0
F807C0
F807C0
F807C0
F807C0
F807C0
F807C0
F807C0
F807C0
ENDCHAR
STARTCHAR 00F2
ENCODING 242
SWIDTH 277 0
DWIDTH 20 0
BBX 18 38 0 0
BITMAP
0F0000
078000
038000
03C000
01C000
01E000
00E000
00F000
007000
007800
003800
000400
000000
000000
000000
0FFC00
1FFE00
3FFF00
7FFF80
FFFFC0
FC0FC0
F807C0
F807C0
F807C0
F807C0
F807C0
F807C0
F807C0
F807C0
F807C0
F807C0
F807C0
FC0FC0
FFFFC0
7FFF80
3FFF00
1FFE00
0FFC00
ENDCHAR
STARTCHAR 00F3
ENCODING 243
SWIDTH 277 0
DWIDTH 20 0
BBX 18 38 0 0
BITMAP
003C00
007800
007000
00F000
00E000
01E000
01C000
03C000
038000
078000
070000
080000
000000
000000
000000
0FFC00
1FFE00
3FFF00
7FFF80
FFFFC0
FC0FC0
F807C0
F807C0
F807C0
F807C0
F807C0
F807C0
F807C0
F807C0
F807C0
F807C0
F807C0
FC0FC0
FFFFC0
7FFF80
3FFF00
1FFE00
0FFC00
ENDCHAR
STARTCHAR 00F4
ENCODING 244
SWIDTH 277 0
DWIDTH 20 0
BBX 18 38 0 0
BITMAP
008000
00C000
00C000
01E000
01E000
03F000
03F000
07F800
073800
0F3C00
0E1C00
100200
000000
000000
000000
007C00
0FFE00
1FFF00
3FFF80
7FFFC0
FC0FC0
F807C0
F807C0
F807C0
F807C0
F807C0
F807C0
F807C0
F807C0
F807C0
F807C0
F807C0
FC0FC0
FFFFC0
7FFF80
3FFF00
1FFE00
0FFC00
ENDCHAR
STARTCHAR 00F5
ENCODING 245
SWIDTH 277 0
DWIDTH 20 0
BBX 18 36 0 0
BITMAP
0E0F00
1F0F00
3F8F00
3FCF00
3FFF00
3CFF00
3C7F00
3C3E00
3C1C00
000000
000000
000000
000000
0FFC00
1FFE00
3FFF00
7FFF80
FFFFC0
FC0FC0
F807C0
F807C0
F807C0
F807C0
F807C0
F807C0
F807C0
F807C0
F807C0
F807C0
F807C0
FC0FC0
FFFFC0
7FFF80
3FFF00
1FFE00
0FFC00
ENDCHAR
STARTCHAR 00F6
ENCODING 246
SWIDTH 277 0
DWIDTH 20 0
BBX 18 32 0 0
BITMAP
3E1F00
3E1F00
3E1F00
3E1F00
3E1F00
000000
000000
000000
000000
0FFC00
1FFE00
3FFF00
7FFF80
FFFFC0
FC0FC0
F807C0
F807C0
F807C0
F807C0
F807C0
F807C0
F807C0
F807C0
F807C0
F807C0
F807C0
FC0FC0
FFFFC0
7FFF80
3FFF00
1FFE00
0FFC00
ENDCHAR
STARTCHAR 00F7
ENCODING 247
SWIDTH 277 0
DWIDTH 20 0
BBX 18 23 0 4
BITMAP
01E000
01E000
01E000
01E000
01E000
000000
000000
000000
000000
FFFFC0
FFFFC0
FFFFC0
FFFFC0
FFFFC0
000000
000000
000000
000000
01E000
01E000
01E000
01E000
01E000
ENDCHAR
STARTCHAR 00F8
ENCODING 248
SWIDTH 277 0
DWIDTH 20 0
BBX 18 23 0 0
BITMAP
0FFC00
1FFE00
3FFF00
7FFF80
FFFFC0
FC3FC0
F87FC0
F87FC0
F8FFC0
F8F7C0
F9F7C0
F9E7C0
FBE7C0
FBC7C0
FFC7C0
FF87C0
FF87C0
FF0FC0
FFFFC0
7FFF80
3FFF00
1FFE00
0FFC00
ENDCHAR
STARTCHAR 00F9
ENCODING 249
SWIDTH 277 0
DWIDTH 20 0
BBX 18 38 0 0
BITMAP
0F0000
078000
038000
03C000
01C000
01E000
00E000
00F000
007000
007800
003800
000400
000000
000000
000000
F807C0
F807C0
F807C0
F807C0
F807C0
F807C0
F807C0
F807C0
F807C0
F807C0
F807C0
F807C0
F807C0
F807C0
F807C0
F807C0
F807C0
FC0FC0
FFFFC0
7FFFC0
3FFFC0
1FFFC0
0FF7C0
ENDCHAR
STARTCHAR 00FA
ENCODING 250
SWIDTH 277 0
DWIDTH 20 0
BBX 18 38 0 0
BITMAP
003C00
007800
007000
00F000
00E000
01E000
01C000
03C000
038000
078000
070000
080000
000000
000000
000000
F807C0
F807C0
F807C0
F807C0
F807C0
F807C0
F807C0
F807C0
F807C0
F807C0
F807C0
F807C0
F807C0
F807C0
F807C0
F807C0
F807C0
FC0FC0
FFFFC0
7FFFC0
3FFFC0
1FFFC0
0FF7C0
ENDCHAR
STARTCHAR 00FB
ENCODING 251
SWIDTH 277 0
DWIDTH 20 0
BBX 18 38 0 0
BITMAP
008000
00C000
00C000
01E000
01E000
03F000
03F000
07F800
073800
0F3C00
0E1C00
100200
000000
000000
000000
000000
F807C0
F807C0
F807C0
F807C0
F807C0
F807C0
F807C0
F807C0
F807C0
F807C0
F807C0
F807C0
F807C0
F807C0
F807C0
F807C0
FC0FC0
FFFFC0
7FFFC0
3FFFC0
1FFFC0
0FF7C0
ENDCHAR
STARTCHAR 00FC
ENCODING 252
SWIDTH 277 0
DWIDTH 20 0
BBX 18 32 0 0
BITMAP
3E1F00
3E1F00
3E1F00
3E1F00
3E1F00
000000
000000
000000
000000
F807C0
F807C0
F807C0
F807C0
F807C0
F807C0
F807C0
F807C0
F807C0
F807C0
F807C0
F807C0
F807C0
F807C0
F807C0
F807C0
F807C0
FC0FC0
FFFFC0
7FFFC0
3FFFC0
1FFFC0
0FF7C0
ENDCHAR
STARTCHAR 00FD
ENCODING 253
SWIDTH 277 0
DWIDTH 20 0
BBX 18 49 0 -11
BITMAP
003C00
007800
007000
00F000
00E000
01E000
01C000
03C000
038000
078000
070000
080000
000000
000000
000000
F807C0
F807C0
F807C0
F807C0
F807C0
F807C0
F807C0
F807C0
F807C0
F807C0
780780
7C0F80
3C0F00
3E1F00
1E1E00
1F3E00
0F3C00
0FFC00
07F800
07F800
03F000
03F000
01E000
03E000
03C000
07C000
078000
0F8000
0F0000
1F0000
1E0000
3E0000
3C0000
7C0000
ENDCHAR
STARTCHAR 00FE
ENCODING 254
SWIDTH 277 0
DWIDTH 20 0
BBX 18 43 0 -11
BITMAP
F80000
F80000
F80000
F80000
F80000
F80000
F80000
F80000
F80000
FBFC00
FFFE00
FFFF00
FFFF80
FFFFC0
FC0FC0
F807C0
F807C0
F807C0
F807C0
F807C0
F807C0
F807C0
F807C0
F807C0
F807C0
F807C0
FC0FC0
FFFFC0
FFFF80
FFFF00
FFFE00
FBFC00
F80000
F80000
F80000
F80000
F80000
F80000
F80000
F80000
F80000
F80000
F80000
ENDCHAR
STARTCHAR 00FF
ENCODING 255
SWIDTH 277 0
DWIDTH 20 0
BBX 18 43 0 -11
BITMAP
3E1F00
3E1F00
3E1F00
3E1F00
3E1F00
000000
000000
000000
000000
F807C0
F807C0
F807C0
F807C0
F807C0
F807C0
F807C0
F807C0
F807C0
F807C0
780780
7C0F80
3C0F00
3E1F00
1E1E00
1F3E00
0F3C00
0FFC00
07F800
07F800
03F000
03F000
01E000
03E000
03C000
07C000
078000
0F8000
0F0000
1F0000
1E0000
3E0000
3C0000
7C0000
ENDCHAR
STARTCHAR 0153
ENCODING 339
SWIDTH 277 0
DWIDTH 20 0
BBX 18 23 0 0
BITMAP
0E1C00
1F3E00
3FFF00
7FFF80
FFFFC0
FFFFC0
FBF7C0
F9E7C0
F9E7C0
F9FFC0
F9FFC0
F9FFC0
F9FFC0
F9FFC0
F9E000
F9E000
FBF7C0
FFFFC0
FFFFC0
7FFF80
3FFF00
1F3E00
0E1C00
ENDCHAR
STARTCHAR 0160
ENCODING 352
SWIDTH 277 0
DWIDTH 20 0
BBX 18 47 0 0
BITMAP
1E1E00
0F3C00
073800
07F800
03F000
03F000
01E000
01E000
00C000
00C000
008000
000000
000000
000000
000000
0FFC00
1FFE00
3FFF00
7FFF80
FFFFC0
FC0FC0
F807C0
F807C0
F807C0
F807C0
F80000
F80000
F80000
FC0000
FFFC00
7FFE00
3FFF00
1FFF80
0FFFC0
000FC0
0007C0
0007C0
F807C0
F807C0
F807C0
F807C0
FC0FC0
FFFFC0
7FFF80
3FFF00
1FFE00
0FFC00
ENDCHAR
STARTCHAR 0161
ENCODING 353
SWIDTH 277 0
DWIDTH 20 0
BBX 18 38 0 0
BITMAP
1E1E00
0F3C00
073800
07F800
03F000
03F000
01E000
01E000
00C000
00C000
008000
000000
000000
000000
000000
0FFC00
1FFE00
3FFF00
7FFF80
FFFFC0
FC0FC0
F807C0
F807C0
FC0000
FFFC00
7FFE00
3FFF00
1FFF80
0FFFC0
000FC0
F807C0
F807C0
FC0FC0
FFFFC0
7FFF80
3FFF00
1FFE00
0FFC00
ENDCHAR
STARTCHAR 0178
ENCODING 376
SWIDTH 277 0
DWIDTH 20 0
BBX 18 41 0 0
BITMAP
3E1F00
3E1F00
3E1F00
3E1F00
3E1F00
000000
000000
000000
000000
F807C0
F807C0
F807C0
F807C0
780780
7C0F80
3C0F00
3E1F00
1E1E00
1F3E00
0F3C00
0FFC00
07F800
07F800
03F000
03F000
01E000
01E000
01E000
01E000
01E000
01E000
01E000
01E000
01E000
01E000
01E000
01E000
01E000
01E000
01E000
01E000
ENDCHAR
STARTCHAR 017D
ENCODING 381
SWIDTH 277 0
DWIDTH 20 0
BBX 18 47 0 0
BITMAP
1E1E00
0F3C00
073800
07F800
03F000
03F000
01E000
01E000
00C000
00C000
008000
000000
000000
000000
000000
FFFFC0
FFFFC0
FFFFC0
FFFF80
FFFF80
000F00
000F00
001E00
001E00
003C00
003C00
007800
007800
00F000
00F000
01E000
01E000
03C000
03C000
078000
078000
0F0000
0F0000
1E0000
1E0000
3C0000
3C0000
7FFFC0
7FFFC0
FFFFC0
FFFFC0
FFFFC0
ENDCHAR
STARTCHAR 017E
ENCODING 382
SWIDTH 277 0
DWIDTH 20 0
BBX 18 38 0 0
BITMAP
1E1E00
0F3C00
073800
07F800
03F000
03F000
01E000
01E000
00C000
00C000
008000
000000
000000
000000
000000
FFFFC0
FFFFC0
FFFFC0
FFFFC0
FFFFC0
000FC0
001F80
003F00
007E00
00FC00
01F800
03F000
07E000
0FC000
1F8000
3F0000
7E0000
FC0000
FFFFC0
FFFFC0
FFFFC0
FFFFC0
FFFFC0
ENDCHAR
STARTCHAR 0192
ENCODING 402
SWIDTH 277 0
DWIDTH 20 0
BBX 18 11 0 20
BITMAP
FE71C0
FE71C0
387BC0
387BC0
387FC0
386EC0
386EC0
3864C0
3864C0
3860C0
3860C0
ENDCHAR
STARTCHAR 2018
ENCODING 8216
SWIDTH 277 0
DWIDTH 20 0
BBX 4 12 7 20
BITMAP
10
30
30
70
60
60
C0
F0
F0
F0
F0
F0
ENDCHAR
STARTCHAR 2019
ENCODING 8217
SWIDTH 277 0
DWIDTH 20 0
BBX 4 12 7 20
BITMAP
F0
F0
F0
F0
F0
30
60
60
E0
C0
C0
80
ENDCHAR
STARTCHAR 201C
ENCODING 8220
SWIDTH 277 0
DWIDTH 20 0
BBX 12 12 4 20
BITMAP
0830
1830
1870
3060
30E0
60C0
60C0
F9F0
F9F0
F9F0
F9F0
F9F0
ENDCHAR
STARTCHAR 201D
ENCODING 8221
SWIDTH 277 0
DWIDTH 20 0
BBX 12 12 2 20
BITMAP
F9F0
F9F0
F9F0
F9F0
F9F0
3060
3060
70C0
60C0
E180
C180
C100
ENDCHAR
STARTCHAR 2020
ENCODING 8224
SWIDTH 277 0
DWIDTH 20 0
BBX 14 43 2 -11
BITMAP
0780
0780
0780
0780
0780
0780
0780
FFFC
FFFC
FFFC
FFFC
FFFC
0780
0780
0780
0780
0780
0780
0780
0780
0780
0780
0780
0780
0780
0780
0780
0780
0780
0780
0780
0780
0780
0780
0780
0780
0780
0780
0780
0780
0780
0780
0780
ENDCHAR
STARTCHAR 2022
ENCODING 8226
SWIDTH 277 0
DWIDTH 20 0
BBX 18 18 0 7
BITMAP
008000
00C000
00C000
19E600
1FFE00
0FFC00
0FFC00
1FFE00
7FFF80
FFFFC0
1FFE00
0FFC00
0FFC00
1FFE00
19E600
00C000
00C000
008000
ENDCHAR
STARTCHAR 20AC
ENCODING 8364
SWIDTH 277 0
DWIDTH 20 0
BBX 18 32 0 0
BITMAP
00FC00
01FE00
03FF00
07FF80
0FFFC0
0F87C0
0F87C0
0F8000
0F8000
3FFF80
3FFF00
7FFF00
7FFE00
FFFE00
0F8000
0F8000
0F8000
0F8000
3FFE00
3FFC00
7FFC00
7FF800
FFF800
0F8000
0F8000
0F87C0
0F87C0
0FFFC0
07FF80
03FF00
01FE00
00FC00
ENDCHAR
STARTCHAR 2122
ENCODING 8482
SWIDTH 3208 0
DWIDTH 231 0
BBX 228 51 2 -4
BITMAP
FFFFFFFFFFFFFFFFFFFFFFFFFFFFFFFFFFFFFFFFFFFFFFFFFFFFFFFFF0
FFFFFFFFFFFFFFFFFFFFFFFFFFFFFFFFFFFFFFFFFFFFFFFFFFFFFFFFF0
E000000000000000000000000000000000000000000000000000000070
E000000000000000000000000000000000000000000000000000000070
E000000000000000000000000000000000000000000000000000000070
E000000000000000000000000000000000000000000000000000000070
E000000000000000000000000000000000000000000000000000000070
E07003C0000700E00001C000003001C0E6003C00380000070000000070
E0F803C0000700E00001E000003001C0E6007E00380000070000000070
E19C0300000700E00001B000000001C0E600E200380000070000000070
E19C0300000700E000019800000001C0E600E000380000070000000070
E19C0FC70F8FC0EC73019C3E6C30F1C0E600E01E3E0703C7C3E070F870
E1FC0FCF8FCFC0FE73019C7E7E31F9C0FE00FC3F3F0F87E7E3F0F8F870
E1FC031CCF6700F673019CDE7F3399C0FE007E713D9CCE27B3D9CCF070
E19C031CCE6700E673019CCE6733F9C0E6000670399FCE073399FCE070
E19C031CCE6700E673019CCE6733F9C0E6000670399FCE073399FCE070
E19C031CCE6700F67301B8CE673381C0E6000670399C0E073399C0E070
E19C031CCE6700FE7301F0FE673381C0E600C671399C0E273399C0E070
E19C030F8E63C0FE3F01E07E6731F9C0E6E0FC3F398FC7E73398FCE070
E19C03070E63C0EC1E01C03E6730F1C0E6E0781E398703C7339870E070
E000000000000000060000000000000000000000000000000000000070
E0000000000000000C0000000000000000000000000000000000000070
E0000000000000000C0000000000000000000000000000000000000070
E000000000000000180000000000000000000000000000000000000070
E000000000000000180000000000000000000000000000000000000070
E000000000000000000000000000000000000000000000000000000070
E000000000000000000000000000000000000000000000000000000070
E000000000000000000000000000000000000000000000000000000070
E000000000000000000000000000000000000000000000000000000070
E0000000000070E60000000000000000000000000E60E0000000000070
E00000000000F0E60000000000000000000000000E60F0000000000070
E00000000001C0E60E000038000019C0000300000E6030000000000070
E00000000001C0E61E000038000019C0000300000E6030000000000070
E00000000001C0E61E000038000019C0000300000E6030000000000070
E00000000001C00018000038000019C000030000000030000000000070
E00000000001C00018000038000019C000030000000030000000000070
E00000000001C0007E387E7E1E0E19C381E7E3C3400030000000000070
E00000000001C0007E7C7F7E3F1F19C7C3F7E7E3C00030000000000070
E00000000001C00018E67B38633399CCE6330673800030000000000070
E00000000001C00018E67338603399CFE6030673000030000000000070
E00000000001C00018E67338603399CFE6030673000030000000000070
E00000000001C00018E67338603399CFE6130673000030000000000070
E00000000001C00018E67338613399CC06330673000030000000000070
E00000000000F000187C731E3F1F19C7E3F3E7E30000E0000000000070
E0000000000070001838731E1E0E19C381C1E3C30000E0000000000070
E000000000000000000000000000000000000000000000000000000070
E000000000000000000000000000000000000000000000000000000070
E000000000000000000000000000000000000000000000000000000070
E000000000000000000000000000000000000000000000000000000070
FFFFFFFFFFFFFFFFFFFFFFFFFFFFFFFFFFFFFFFFFFFFFFFFFFFFFFFFF0
FFFFFFFFFFFFFFFFFFFFFFFFFFFFFFFFFFFFFFFFFFFFFFFFFFFFFFFFF0
ENDCHAR
ENDFONT
